<?xml version="1.0" encoding="utf-8"?>
<!-- Generator: Adobe Illustrator 23.0.0, SVG Export Plug-In . SVG Version: 6.00 Build 0)  -->
<svg version="1.1" id="Capa_1" xmlns="http://www.w3.org/2000/svg" xmlns:xlink="http://www.w3.org/1999/xlink" x="0px" y="0px"
	 viewBox="0 0 266 51" style="enable-background:new 0 0 266 51;" xml:space="preserve">
<style type="text/css">
	.st0{fill:#D88D00;}
	.st1{fill:#5EA5AB;}
	.st2{fill:#FFFFFF;}
	.st3{display:none;}
	.st4{display:inline;}
</style>
<g>
	<g>
		<path class="st0" d="M60.15,41.26L60.15,41.26c0.9-0.68,1.74-1.31,2.52-1.9c-0.04-0.07-0.07-0.14-0.11-0.21
			c-0.77,0.59-1.6,1.23-2.51,1.91c-1.5-2.62-3.21-4.78-6.53-8c-0.08,0.08-0.17,0.16-0.25,0.24c3.04,2.94,5.02,5.28,6.53,7.95
			c-2.47,1.87-4.35,3.33-6.05,4.92c-0.97,0.05-1.78,0.09-2.59,0.12c0.04-0.02,0.06-0.04,0.06-0.04c0.3-0.26,0.61-0.7,0.87-1.01
			c0.38-0.45,1.57-1.77,4.58-4.37c0.11-0.11,0.26-0.27,0.35-0.49c0.08-0.2,0.23-0.59-1.29-2.37c-0.09-0.1-0.18-0.21-0.28-0.32
			c-0.19-0.22-0.41-0.45-0.65-0.71c-0.1-0.1-0.2-0.21-0.31-0.32c-0.22-0.22-0.45-0.46-0.7-0.71c-0.11-0.11-0.22-0.22-0.33-0.33
			c-0.23-0.23-0.48-0.47-0.74-0.72c-0.11-0.11-0.23-0.22-0.34-0.33c-0.08-0.07-0.15-0.14-0.23-0.22c-0.11,0.11-0.23,0.22-0.34,0.32
			c2.6,2.47,5.09,5.04,4.86,5.64c-0.05,0.13-0.14,0.22-0.2,0.29c-1.81,1.61-3.69,3.27-5.3,5.32c-0.06,0.08-0.13,0.11-0.19,0.12
			c0,0.1,0,0.2,0,0.3c0,0.02,0,0.05,0,0.07c0.87-0.05,1.74-0.09,2.61-0.09c-0.36,0.35-0.72,0.7-1.07,1.07
			c0.02,0.02,0.03,0.03,0.04,0.04c-0.07-0.08-0.18-0.13-0.32-0.12c-0.46,0.1-0.48,0.74-0.2,0.93c0.24,0.16,0.53-0.08,0.6-0.39
			c0.03-0.14,0.01-0.29-0.05-0.39c0.01,0.01,0.02,0.03,0.03,0.05c0.41-0.42,0.81-0.8,1.22-1.19c0.27,0,0.54,0.01,0.81,0.02
			c0.03,0,0.06,0,0.1,0.01c-0.14,0.2-0.19,0.45-0.12,0.61c0.07-0.06,0.15-0.11,0.22-0.17c-0.05-0.11,0.01-0.29,0.14-0.41
			c0,0,0,0,0,0c0.1,0.01,0.21,0.03,0.33,0.06c0.03-0.02,0.05-0.04,0.08-0.06c0.08-0.06,0.16-0.12,0.24-0.18
			c-0.04-0.13-0.15-0.21-0.35-0.2c-0.14,0.02-0.26,0.08-0.36,0.16c-0.07-0.01-0.14-0.02-0.22-0.03l-0.35,0
			c-0.12,0.01-0.23,0.01-0.34,0.02c1.28-1.17,2.83-2.42,5.88-4.71c0.04,0.09,0.08,0.18,0.11,0.26c0.04,0.1,0.09,0.21,0.13,0.31
			c0.1,0.25,0.19,0.49,0.27,0.73c0.08-0.06,0.16-0.12,0.24-0.18c-0.01-0.03-0.02-0.05-0.02-0.08C60.49,42.11,60.34,41.7,60.15,41.26
			z M52.46,47.84c-0.02,0.08-0.08,0.23-0.24,0.24c-0.22-0.01-0.26-0.33-0.11-0.47c0.15-0.15,0.36-0.04,0.35,0.17
			C52.47,47.8,52.47,47.82,52.46,47.84z"/>
		<path class="st0" d="M56.01,40.2c-1.52-1.9-3.19-3.53-4.76-5c-0.12,0.12-0.24,0.23-0.37,0.35c0.02,3.82,0.04,7.18,0.08,9.82
			C52.49,43.41,54.36,41.71,56.01,40.2z"/>
	</g>
	<g>
		<path class="st0" d="M50.98,46.34c-0.07,0.01-0.16,0-0.25-0.04c-0.45,0.01-0.91,0.03-1.4,0.04c0.06,0.05,0.13,0.11,0.19,0.16
			c0.49-0.03,0.97-0.06,1.46-0.09C50.98,46.39,50.98,46.37,50.98,46.34z"/>
		<path class="st0" d="M47.58,46.37l0.07,0.2c0.55-0.01,1.09-0.03,1.64-0.06c-0.07-0.05-0.14-0.11-0.21-0.17
			C48.61,46.35,48.12,46.36,47.58,46.37z"/>
		<path class="st0" d="M32.37,9.66l-0.22,0.18c-0.16,0.59-0.33,1.36-0.44,2.03c0,0.01,0,0.02,0.01,0.03c0,0-0.01,0.01-0.01,0.02
			c0,0,0,0,0,0c-0.02,0.14-0.05,0.28-0.07,0.41l0.22-0.19C31.97,11.38,32.17,10.39,32.37,9.66z"/>
		<path class="st0" d="M34.46,6.02c0.05-0.11,0.11-0.21,0.17-0.31c-1.38,1.52-1.84,2.59-2.4,3.91l0.22-0.17
			C33.07,7.87,33.72,6.89,34.46,6.02z"/>
		<path class="st0" d="M34.87,5.46c-0.06,0.09-0.11,0.19-0.16,0.28c0.28-0.31,0.57-0.61,0.87-0.92c0.03-0.03,0.06-0.06,0.08-0.08
			l-0.22,0.13C35.24,5.07,35.04,5.27,34.87,5.46z"/>
		<path class="st0" d="M31.61,12.74l0.23-0.25c0-0.04,0-0.08,0-0.13l-0.22,0.19C31.62,12.62,31.62,12.68,31.61,12.74z"/>
		<path class="st0" d="M31.61,12.9c-0.03,1.11,0.06,1.85,0.24,2.7c0.07-0.09,0.14-0.17,0.21-0.24c-0.18-0.91-0.21-1.58-0.21-2.51
			c-0.07,0.08-0.13,0.14-0.18,0.2L31.61,12.9z"/>
		<path class="st0" d="M32.24,17.17l0.23-0.22c-0.15-0.5-0.26-0.93-0.35-1.31c-0.07,0.08-0.13,0.16-0.2,0.25
			C32,16.27,32.11,16.68,32.24,17.17z"/>
		<path class="st0" d="M28.63,15.3c-0.02,0.1-0.05,0.21-0.07,0.31c0.32-0.36,0.67-0.75,1.08-1.16c-0.02-0.06-0.03-0.12-0.05-0.18
			C29.24,14.63,28.92,14.97,28.63,15.3z"/>
		<path class="st0" d="M31.62,12.56l0.22-0.19c0.41-0.34,0.8-0.67,1.2-1c0-0.07-0.01-0.14-0.01-0.22c-0.38,0.31-0.78,0.63-1.18,0.98
			l-0.22,0.19c-0.71,0.65-1.32,1.22-1.84,1.75c0.01,0.06,0.03,0.12,0.05,0.18C30.35,13.74,30.93,13.19,31.62,12.56z"/>
		<path class="st0" d="M30.37,22.92c-0.57,0.69-1.15,1.51-1.74,2.46c0.02,0.12,0.05,0.24,0.07,0.35c0.34-0.55,0.71-1.1,1.12-1.64
			c0.2-0.41,0.4-0.78,0.58-1.13C30.39,22.95,30.38,22.94,30.37,22.92z"/>
		<path class="st0" d="M30.74,22.9C30.74,22.9,30.74,22.9,30.74,22.9c1.35-1.62,2.93-3.19,4.65-4.75c-0.05-0.08-0.1-0.17-0.15-0.25
			c-1.63,1.47-2.74,2.6-3.67,3.64c-0.01,0.01-0.01,0.02-0.02,0.03L30.74,22.9z"/>
		<path class="st0" d="M32.04,30.08l-0.28-0.38c-0.07,0.1-0.15,0.23-0.22,0.33c0,0.01,0.01,0.01,0.01,0.02
			c0.13,0.18,0.23,0.32,0.27,0.36L32.04,30.08z"/>
		<path class="st0" d="M32.79,29.01l-0.28-0.39c-0.07,0.1-0.17,0.24-0.24,0.34c0,0.01,0.01,0.01,0.01,0.02
			c0.11,0.16,0.2,0.28,0.27,0.37L32.79,29.01z"/>
		<path class="st0" d="M34.92,25.7c0,0.01,0.01,0.01,0.01,0.02c0.09,0.12,0.18,0.24,0.28,0.36l0.31-0.34l-0.29-0.38
			C35.13,25.46,35.01,25.59,34.92,25.7z"/>
		<path class="st0" d="M30.91,31.08c0.08,0.12,0.17,0.24,0.26,0.36l0.19-0.32l-0.28-0.38c-0.06,0.1-0.13,0.23-0.19,0.32
			C30.91,31.07,30.91,31.07,30.91,31.08z"/>
		<path class="st0" d="M36.13,24.51L36.13,24.51L36.13,24.51l-0.05-0.05c-0.04,0.05-0.09,0.09-0.13,0.13
			c0.05,0.05,0.11,0.11,0.16,0.17c0.01,0.01,0.02,0.01,0.03,0.01c0.01,0,0.02,0,0.25-0.33l-0.11-0.15L36.13,24.51z"/>
		<path class="st0" d="M33.07,27.87c0,0.01,0.01,0.01,0.01,0.02h0c0.09,0.12,0.18,0.24,0.27,0.37l0.27-0.34l-0.29-0.39
			C33.26,27.64,33.15,27.77,33.07,27.87z"/>
		<path class="st0" d="M36.21,24.96c0.01,0.01,0.01,0.02,0.02,0.02l0.33-0.34l-0.03-0.03c-0.08,0.1-0.16,0.2-0.24,0.29
			C36.27,24.93,36.24,24.95,36.21,24.96z"/>
		<path class="st0" d="M34.54,26.83l-0.29-0.38c-0.05,0.06-0.12,0.14-0.18,0.21c0.11,0.11,0.22,0.22,0.34,0.33L34.54,26.83z"/>
		<path class="st0" d="M43.11,36.35c1.13-1.78,2.39-3.38,3.6-4.81c-0.09-0.08-0.17-0.17-0.25-0.25c-1.87,2.24-2.81,3.66-3.61,4.86
			l0.02,0.01L43,36.27L43.11,36.35z"/>
		<path class="st0" d="M28.91,26.64c0.42-1.06,0.96-2.2,1.66-3.45c2.08,2.59,3.62,4.28,8.75,8.57c-0.17,0.41,0,0.97,0.43,1.27
			c0.62,0.42,1.34-0.02,1.26-0.77c-0.05-0.53-0.52-1.05-1.13-0.96c-0.19,0.04-0.33,0.13-0.43,0.25c0.01-0.01,0.01-0.02,0.02-0.02
			c-2.33-2.04-3.84-3.36-5.06-4.55c-0.11-0.11-0.23-0.22-0.34-0.33c-1.17-1.15-2.11-2.22-3.32-3.75c0,0,0-0.01-0.01-0.01l0.82-1.33
			c0.01-0.01,0.01-0.02,0.02-0.03c0.23-0.39,0.48-0.88,0.56-1.71c0,0,0,0,0,0c0.03-0.8,0.03-0.8-1.13-2.81
			c0.27-0.33,0.6-0.75,0.91-1.13c0.07-0.08,0.14-0.17,0.2-0.25c0.05-0.06,0.09-0.11,0.14-0.16c0.62-0.68,1.14-0.82,1.5-0.79
			c-0.04-0.1-0.07-0.21-0.11-0.31c-0.08,0.01-0.17,0.02-0.26,0.04c-0.49,0.16-0.79,0.34-1.33,0.95c-0.07,0.07-0.13,0.15-0.21,0.24
			c-0.26,0.31-0.57,0.7-0.96,1.21c-0.36-0.73-0.79-1.59-1.05-2.56c-0.02-0.06-0.03-0.12-0.05-0.18c-0.13-0.55-0.21-1.14-0.18-1.76
			c-0.07,0.17-0.14,0.34-0.21,0.51c0.01,0.47,0.07,0.95,0.19,1.45c0.01,0.06,0.03,0.12,0.05,0.18c0.21,0.79,0.56,1.65,1.04,2.63
			c-0.59,0.83-1.35,1.94-1.9,2.8c-0.27-0.57-0.47-1.02-0.64-1.44c-0.02,0.21-0.03,0.41-0.04,0.62c0.14,0.34,0.31,0.7,0.51,1.11
			c-0.17,0.32-0.35,0.64-0.51,0.97c0.01,0.13,0.01,0.27,0.02,0.4c0.19-0.36,0.39-0.75,0.61-1.15c0.93,1.57,0.96,1.63,1.64,2.54
			c0.01,0.01,0.02,0.03,0.03,0.04c-0.18,0.35-0.38,0.73-0.58,1.13c-0.33,0.65-0.67,1.38-1,2.17C28.85,26.39,28.88,26.52,28.91,26.64
			z M39.78,31.84c0.28-0.28,0.79-0.03,0.83,0.41h0c0.02,0.17-0.04,0.46-0.37,0.51C39.73,32.79,39.48,32.14,39.78,31.84z
			 M30.79,17.29c0.24,0.39,0.55,0.91,0.81,1.28c0.23,0.38,0.3,0.71,0.27,1.3c0,0,0,0,0,0c-0.09,0.82-0.09,0.82-1.31,2.8
			c-1.15-1.63-1.19-1.7-1.67-2.57C29.45,19.24,30.2,18.11,30.79,17.29z"/>
		<path class="st0" d="M34.56,35.73c-0.01,0.04-0.03,0.1-0.04,0.14l-0.03,0.12c4.71,3.56,9.8,6.59,14.44,10.25
			c0.05,0.04,0.09,0.07,0.14,0.11c0.07,0.06,0.15,0.11,0.21,0.17c1.1,0.87,1.62,1.31,1.73,1.78c0-0.11,0-0.23-0.01-0.35
			c-0.1-0.2-0.22-0.33-0.29-0.4c-0.39-0.36-0.8-0.71-1.2-1.05c-0.06-0.05-0.13-0.11-0.19-0.16C44.68,42.43,39.39,39.39,34.56,35.73z
			"/>
		<path class="st0" d="M42.21,36.01c-0.77,0.21-0.61,1.25,0.08,1.62c0.59,0.31,1.16-0.09,1.05-0.74c-0.07-0.41-0.34-0.63-0.49-0.74
			C42.59,35.99,42.41,35.98,42.21,36.01z M42.98,36.89c0.03,0.15-0.01,0.42-0.32,0.46c-0.48,0.02-0.75-0.58-0.49-0.85
			C42.42,36.24,42.91,36.48,42.98,36.89z"/>
		<path class="st0" d="M33.42,34.39c-0.35,0.15-0.37,0.58-0.21,0.98c0.27,0.27,0.55,0.53,0.82,0.79c0.41,0.06,0.65-0.36,0.47-0.92h0
			C34.37,34.82,33.94,34.26,33.42,34.39z M34.03,35.77c-0.41,0.04-0.73-0.62-0.53-0.9c0.17-0.23,0.58-0.01,0.7,0.39
			C34.25,35.42,34.27,35.71,34.03,35.77z"/>
		<path class="st0" d="M31.72,11.89c0-0.01,0-0.02-0.01-0.03c-0.02-0.07-0.04-0.15-0.05-0.22l-0.31,0.33l0.06,0.25
			c0.04-0.04,0.15-0.16,0.3-0.32c0,0,0,0,0,0C31.71,11.9,31.71,11.9,31.72,11.89z"/>
		<path class="st0" d="M40.1,28.16c0.07-0.09,0.15-0.2,0.27-0.36c0-0.01,0.01-0.01,0.01-0.02c-0.11-0.1-0.26-0.23-0.36-0.32
			l-0.28,0.38L40.1,28.16z"/>
		<path class="st0" d="M36.69,33.77c0,0,0.01-0.01,0.01-0.02c-0.11-0.09-0.25-0.2-0.36-0.29l-0.17,0.36l0.36,0.29
			C36.6,33.97,36.66,33.85,36.69,33.77z"/>
		<path class="st0" d="M37.95,31.41c-0.11-0.09-0.25-0.21-0.36-0.3l-0.22,0.37l0.36,0.3c0.07-0.11,0.12-0.21,0.21-0.35
			C37.95,31.42,37.95,31.41,37.95,31.41z"/>
		<path class="st0" d="M38.46,30.59c0.03-0.05,0.12-0.18,0.23-0.36h0c0-0.01,0.01-0.01,0.01-0.02c-0.11-0.09-0.25-0.22-0.36-0.31
			l-0.24,0.38L38.46,30.59z"/>
		<path class="st0" d="M41.3,26.57c0-0.01,0.01-0.01,0.01-0.02c-0.11-0.1-0.26-0.23-0.36-0.33l-0.3,0.39l0.36,0.33
			C41.13,26.8,41.24,26.66,41.3,26.57z"/>
		<path class="st0" d="M39.25,29.38c0.12-0.18,0.23-0.33,0.25-0.36c0-0.01,0.01-0.01,0.01-0.02c-0.11-0.09-0.25-0.22-0.36-0.32
			l-0.26,0.38L39.25,29.38z"/>
		<path class="st0" d="M37.28,32.6c0-0.01,0.01-0.01,0.01-0.02c-0.11-0.09-0.25-0.21-0.36-0.3l-0.19,0.37l0.36,0.3
			C37.12,32.9,37.19,32.78,37.28,32.6L37.28,32.6z"/>
		<path class="st0" d="M35.7,34.97l0.36,0.28c0.06-0.16,0.12-0.3,0.13-0.34c0,0,0-0.01,0.01-0.02c-0.11-0.08-0.25-0.2-0.36-0.28
			L35.7,34.97z"/>
		<path class="st0" d="M37.33,23.39c0.02-0.14,0.02-0.14-1.14-1.33c-0.04-0.04-0.09-0.06-0.17-0.05c-0.08,0.02-0.08,0.02-1.1,1.45
			c-0.11,0.19-0.01,0.33-0.01,0.33c0.28,0.38,0.77,0.79,1.1,1.13c0.06,0.06,0.13,0.07,0.2,0.04c0.03-0.01,0.06-0.03,0.09-0.06
			c0.08-0.09,0.16-0.19,0.24-0.29c0.26-0.35,0.52-0.76,0.74-1.08C37.3,23.5,37.32,23.46,37.33,23.39z M37.16,23.37
			c0,0.01-0.01,0.02-0.01,0.03c-0.37,0.52-0.6,0.84-0.74,1.04c-0.23,0.33-0.24,0.33-0.25,0.33c-0.02,0-0.02,0-0.03-0.01
			c-0.06-0.06-0.11-0.11-0.16-0.17c-0.93-0.96-0.93-0.96-0.91-1.01c0.99-1.4,0.99-1.4,1.03-1.37
			C37.16,23.34,37.16,23.34,37.16,23.37z"/>
		<polygon class="st0" points="36.29,24.3 36.94,23.39 36.04,22.47 35.24,23.6 36.08,24.46 36.13,24.51 		"/>
		<path class="st0" d="M50.98,46.34c0-0.1,0-0.2,0-0.3c-0.02,0-0.04,0.01-0.06,0.01c-0.13-0.01-0.16-0.02-0.28-0.11
			c-1.07-0.97-2.29-2.08-5.59-4.51c-0.65-0.48-0.92-0.68-0.75-1.14c0.86-1.47,1.83-3.15,4.71-6.44c0.02-0.02,0.03-0.04,0.05-0.05
			c-0.12-0.11-0.23-0.22-0.35-0.33c-1.58,1.59-4.01,5.21-4.75,6.57c-0.23,0.62,0.18,1.07,0.31,1.2c1.94,1.81,4.27,3.13,6.23,4.92
			c0.08,0.07,0.16,0.12,0.24,0.15C50.82,46.34,50.9,46.35,50.98,46.34z"/>
		<path class="st0" d="M50.85,45.51c0.04-0.05,0.07-0.1,0.11-0.14c-0.03-2.64-0.06-6-0.08-9.82c-0.42-0.4-0.84-0.8-1.26-1.19
			c-2.85,3.21-3.88,4.92-4.7,6.3C48.55,43.37,49.67,44.41,50.85,45.51z"/>
	</g>
	<g>
		<path class="st0" d="M28.54,15.63c0.02-0.11,0.05-0.21,0.07-0.32c-0.35,0.4-0.66,0.79-0.95,1.17c0.01,0.07,0.01,0.13,0.02,0.2
			C27.95,16.34,28.23,15.99,28.54,15.63z"/>
		<path class="st0" d="M26.64,18.04C26.64,18.05,26.64,18.05,26.64,18.04c-0.06,0.09-0.11,0.18-0.16,0.27
			c-0.08,0.18-0.18,0.44-0.29,0.72c0.16-0.29,0.32-0.56,0.48-0.82c-0.01-0.05-0.01-0.1-0.02-0.15
			C26.65,18.06,26.65,18.05,26.64,18.04z"/>
		<path class="st0" d="M26.81,17.76c0.01,0.07,0.02,0.13,0.02,0.19c0.22-0.35,0.44-0.7,0.69-1.04c-0.01-0.06-0.02-0.13-0.02-0.2
			C27.26,17.06,27.03,17.4,26.81,17.76z"/>
		<path class="st0" d="M35.97,45.78c0.11,0.02,0.22,0.05,0.33,0.07c-0.06-0.07-0.12-0.14-0.18-0.21c-0.11-0.02-0.22-0.04-0.34-0.07
			C35.84,45.64,35.9,45.71,35.97,45.78z"/>
		<path class="st0" d="M25.1,23.8c-0.01,0.22-0.02,0.45-0.03,0.68c0.09,2.14,0.54,3.71,0.8,4.44c0.01-0.1,0.01-0.21,0.02-0.31
			C25.31,26.75,25.12,25.15,25.1,23.8z"/>
		<path class="st0" d="M26.04,29.38c0.09,0.2,0.56,1.13,0.94,0.04c0.4-1.26,0.99-2.49,1.72-3.68c-0.03-0.12-0.05-0.23-0.08-0.35
			c-0.23,0.36-0.46,0.75-0.68,1.15c-0.51,0.89-0.69,1.91-1.17,2.81c-0.04,0.07-0.38,0.65-0.8-0.49c-0.01,0.09-0.02,0.18-0.03,0.27
			C26,29.28,26.03,29.37,26.04,29.38z"/>
		<path class="st0" d="M26.05,19.45c-0.16,0.43-0.31,0.89-0.42,1.23C25.74,20.69,25.95,20.01,26.05,19.45z"/>
		<path class="st0" d="M28.52,12.94c0.04,0.02,0.08,0.04,0.12,0.05c0.14-0.07,0.25-0.12,0.45-0.33c0.11-0.12,0.22-0.23,0.32-0.33
			c0-0.06,0.01-0.12,0.02-0.17c-0.04,0.04-0.09,0.09-0.13,0.13c-0.34,0.35-0.41,0.37-0.54,0.4c-0.12-0.17,0.19-1.01,0.88-2.14
			c-0.1,0.14-0.19,0.28-0.29,0.43c-0.2,0.35-0.4,0.72-0.61,1.15C28.5,12.67,28.51,12.78,28.52,12.94z"/>
		<path class="st0" d="M29.15,38.21c0.02,0.08,0.01,0.21,0.06,0.28c0.1,0.13,0.17,0.22,0.25,0.31l-0.05-0.26L29.15,38.21z"/>
		<path class="st0" d="M29.08,37.65c0.12,0.16,0.22,0.28,0.25,0.32l-0.02-0.27l-0.26-0.34C29.06,37.45,29.03,37.58,29.08,37.65z"/>
		<path class="st0" d="M30.3,33.13l-0.27-0.37c-0.04,0.09-0.09,0.21-0.13,0.31c0,0.01,0.01,0.01,0.01,0.02l0,0
			c0.11,0.15,0.2,0.27,0.26,0.35L30.3,33.13z"/>
		<path class="st0" d="M29.91,34.09l-0.27-0.36c-0.03,0.09-0.07,0.21-0.1,0.3c0,0.01,0.01,0.01,0.01,0.02
			c0.12,0.17,0.22,0.29,0.26,0.35L29.91,34.09z"/>
		<path class="st0" d="M29.62,35.03l-0.27-0.36c-0.02,0.09-0.05,0.2-0.07,0.29c0,0,0.01,0.01,0.01,0.02h0
			c0.11,0.15,0.19,0.25,0.26,0.34L29.62,35.03z"/>
		<path class="st0" d="M30.37,32.09c0.11,0.15,0.19,0.26,0.26,0.36l0.16-0.31l-0.28-0.38c-0.05,0.09-0.11,0.22-0.16,0.31
			C30.36,32.08,30.36,32.09,30.37,32.09z"/>
		<path class="st0" d="M29.05,36.79c0.12,0.16,0.22,0.29,0.25,0.33l0.01-0.27l-0.27-0.35C29.05,36.58,29,36.72,29.05,36.79z"/>
		<path class="st0" d="M29.42,35.95l-0.27-0.35c-0.01,0.08-0.03,0.2-0.04,0.28c0,0,0.01,0.01,0.01,0.02
			c0.11,0.15,0.19,0.25,0.26,0.33L29.42,35.95z"/>
		<path class="st0" d="M31.65,8.7c0.07-0.09,0.13-0.19,0.2-0.28c-0.12,0.11-0.38,0.34-1,0.89c0,0-0.01,0.01-0.02,0.01
			c0-0.01,0-0.01,0.82-1.21c0.01-0.01,0.01-0.02,0.02-0.03c0.03-0.03,0.03-0.03,1.07-0.91c0,0,0.01,0,0.01,0
			c-0.05,0.07-0.06,0.08-0.49,0.69c0.21-0.26,0.42-0.51,0.63-0.75c0.01-0.03,0.02-0.06,0.03-0.1c0,0,0,0,0,0
			c-0.02,0-0.02,0-0.07,0.04c0,0-0.25,0.2-0.52,0.43c-0.01,0.02-0.02,0.03-0.04,0.04c-0.14,0.13-0.25,0.23-0.28,0.27l0.06-0.09
			c-0.18,0.16-0.34,0.3-0.42,0.4c-0.05,0.05-0.07,0.09-0.1,0.12C31.54,8.23,30.7,9.41,30.7,9.5c0.02,0,0.02,0,0.07-0.05
			C31.05,9.19,31.37,8.96,31.65,8.7z"/>
		<path class="st0" d="M31.02,9.09l0.87-0.76l0.67-0.95L31.7,8.11L31.02,9.09z M32.05,7.97c-0.03,0.07-0.06,0.17-0.11,0.23
			c-0.13,0.12-0.22,0.21-0.29,0.28l0.1-0.22L32.05,7.97z"/>
		<path class="st0" d="M26.69,22.53c0,0.04,0,0.04-0.44,0.92c0,0-0.01,0.01-0.01,0.01c-0.01-0.01-0.01-0.01-0.07-0.46
			c-0.01,0.04-0.03,0.09-0.04,0.13c0.06,0.42,0.06,0.43,0.07,0.44c0.01,0.02,0.04,0.09,0.08,0c0.5-0.99,0.5-0.99,0.47-1.15
			c-0.05-0.32-0.08-0.54-0.11-0.71c-0.01,0.03-0.03,0.07-0.04,0.1C26.64,22.06,26.66,22.32,26.69,22.53z"/>
		<path class="st0" d="M26.5,21.33c-0.08,0.16-0.15,0.29-0.2,0.39c-0.1,0.25-0.19,0.5-0.27,0.74c0,0,0,0,0,0
			c0.02,0.13,0.04,0.25,0.05,0.35c0.01-0.04,0.03-0.08,0.04-0.12c-0.01-0.1-0.03-0.21-0.05-0.33c0-0.01,0-0.02,0-0.02l0,0
			c0-0.02,0-0.02,0.44-0.89c0,0,0-0.01,0.01-0.01c0,0,0.01,0,0.01,0c0.01,0.03,0.02,0.06,0.02,0.1c0.01-0.04,0.03-0.07,0.04-0.11
			c-0.02-0.13-0.03-0.13-0.04-0.14C26.55,21.28,26.53,21.27,26.5,21.33z"/>
		<path class="st0" d="M26.13,22.35l0.03,0.22c0.1-0.29,0.22-0.59,0.33-0.89l-0.01-0.04L26.13,22.35z"/>
		<path class="st0" d="M26.63,22.54l-0.08-0.57c-0.13,0.33-0.22,0.57-0.33,0.91l0.05,0.37L26.63,22.54z"/>
		<path class="st0" d="M29.4,12.83c0.07-0.17,0.14-0.34,0.21-0.51c0-0.07,0.01-0.14,0.01-0.21c0-0.06,0.01-0.11,0.02-0.17
			c0.09-0.83,0.36-1.72,0.92-2.65c-0.02,0.02-0.03,0.04-0.05,0.06c-0.61,0.97-0.96,1.86-1.07,2.79c-0.01,0.06-0.01,0.12-0.02,0.17
			C29.4,12.49,29.4,12.66,29.4,12.83z"/>
		<path class="st0" d="M25.68,29.42c-0.2,0.41,0.26,1.99,0.43,1.95c0.11-0.02,0.11-0.48,0-1.02c-0.05-0.26-0.14-0.55-0.22-0.75
			c0,0,0,0,0,0c0.02-0.16,0.03-0.32,0.05-0.48c0.01-0.09,0.02-0.18,0.03-0.27c0.28-2.61,0.67-4.4,2.13-7.29
			c-0.01-0.13-0.01-0.27-0.02-0.4c-1.02,1.96-1.91,4.05-2.19,7.44c-0.01,0.1-0.02,0.2-0.02,0.31c-0.01,0.19-0.02,0.37-0.03,0.57
			c0,0,0,0,0,0C25.77,29.4,25.72,29.36,25.68,29.42z M25.9,29.98c0.06,0.13,0.09,0.3,0.11,0.38c0.03,0.17,0.08,0.48,0.01,0.56
			c-0.15,0.07-0.32-0.89-0.26-1.05C25.79,29.8,25.84,29.85,25.9,29.98z"/>
		<path class="st0" d="M41.36,49.09c-0.01-0.01-0.02-0.02-0.03-0.03c-0.92-0.47-2.09-1.19-3.18-2.25c-0.24-0.24-0.46-0.49-0.66-0.76
			c-0.05-0.07-0.1-0.13-0.14-0.2c-0.76-1.09-1.26-2.35-2.07-3.4c-0.84-1.08-1.59-1.62-1.87-1.82c-2.69-1.91-3.71-2.81-5.5-4.85
			c-0.3-1.85-0.75-4.72,1-9.15c-0.03-0.12-0.06-0.25-0.09-0.37c-1.04,2.55-1.84,5.76-1.06,9.32c-0.88-1.23-1.29-1.9-1.63-2.72
			c0.05,0.16,0.09,0.31,0.14,0.47c0.34,0.78,0.76,1.41,1.54,2.51l0.31,1.08c0.05,0.05,0.09,0.1,0.15,0.18l-0.3-1.07
			c1.63,1.88,2.81,2.92,5.48,4.82c1.19,0.85,2.09,2.06,2.46,2.9c0.33,0.78,0.75,1.46,1.22,2.06c0.05,0.07,0.11,0.14,0.17,0.2
			C38.55,47.51,40.13,48.47,41.36,49.09z"/>
		<path class="st0" d="M26.74,16.41c0.49-0.98,0.64-0.73,0.68-0.63c0.02,0.04,0.03,0.11,0.03,0.15c0.01,0.28,0.03,0.54,0.06,0.79
			c0.01,0.07,0.01,0.13,0.02,0.2c0.1,0.76,0.27,1.38,0.56,2.09c0.01-0.21,0.02-0.41,0.04-0.61c-0.21-0.54-0.34-1.04-0.43-1.71
			c-0.01-0.06-0.02-0.13-0.02-0.2c-0.02-0.22-0.05-0.46-0.06-0.72c-0.01-0.16-0.03-0.65-0.38-0.3c-0.02,0.02-0.32,0.34-0.74,1.32
			c-0.08,0.24-0.16,0.48-0.24,0.73C26.39,17.17,26.55,16.81,26.74,16.41z"/>
		<path class="st0" d="M37.41,47.53L37.41,47.53c1.23,0.68,2.15,1.2,4.29,1.88c-0.02-0.02-0.04-0.04-0.07-0.05
			c-1.42-0.46-2.68-0.93-4.34-1.9c-0.06-0.04-0.12-0.07-0.18-0.11L37.41,47.53z"/>
		<path class="st0" d="M28.95,38.55c0.05-0.06-0.09-0.44-0.32-0.88c-0.23-0.42-0.58-0.94-0.65-0.81
			C27.92,37.3,28.86,38.66,28.95,38.55z M28.72,38.18c-0.12,0.07-0.56-0.83-0.53-0.92c0.02-0.07,0.19,0.14,0.36,0.44h0
			C28.62,37.84,28.75,38.11,28.72,38.18z"/>
		<path class="st0" d="M31.94,8.2c0.05-0.05,0.08-0.16,0.11-0.23l-0.3,0.29l-0.1,0.22C31.72,8.41,31.81,8.32,31.94,8.2z"/>
		<path class="st0" d="M32.32,43.47c-1.05-1.14-1.67-1.93-2.03-2.45c-0.09-0.13-0.17-0.25-0.23-0.35c-0.21-0.33-0.25-0.47-0.25-0.48
			c0.01,0.01,0.02,0.01,0.03,0.01c0.02,0.01,0.03,0.02,0.07,0.06c0.01,0.01,0.03,0.03,0.04,0.04c1.31,1.28,2.26,2.16,4.71,3.67
			c0.11,0.07,0.25,0.18,0.36,0.29c0.08,0.08,0.12,0.14,0.16,0.19c0.31,0.41,0.6,0.8,0.93,1.17c0.06,0.07,0.12,0.14,0.18,0.21
			c0.67,0.75,1.52,1.49,2.97,2.39c0.1,0.06,0.1,0.07,0.12,0.09c-0.07-0.01-0.07-0.01-0.14-0.04c-1.24-0.56-1.96-0.89-2.78-1.4
			c0,0,0,0,0,0c-0.29-0.18-0.6-0.38-0.95-0.63c-0.01,0-0.01-0.01-0.02-0.01c-0.02-0.01-0.04-0.03-0.06-0.04
			c0.09,0.07,0.17,0.13,0.25,0.19c0,0,0,0,0,0c0,0,0,0,0,0c0.32,0.21,0.61,0.4,0.89,0.58c0.01,0.01,0.02,0.01,0.03,0.02
			c0.75,0.47,1.49,0.86,2.93,1.47c0.16,0.06,0.2,0.07,0.25,0.09c-0.04-0.07-0.04-0.07-0.16-0.14c-1.53-0.92-2.52-1.81-3.17-2.52
			c-0.06-0.07-0.13-0.14-0.18-0.21c-0.36-0.42-0.6-0.77-0.78-1.02c-0.04-0.06-0.15-0.21-0.37-0.43c-0.3-0.3-0.55-0.45-0.57-0.47
			c-2.34-1.5-3.52-2.43-4.83-3.81c-0.04-0.04-0.06-0.07-0.09-0.09c-0.01-0.01-0.01-0.01-0.02-0.02c-0.04-0.03-0.06-0.04-0.1-0.06
			c0,0.01-0.01,0.02-0.01,0.02c0,0.01,0.2,0.56,1.12,1.74c0.05,0.07,0.11,0.14,0.16,0.21c0.32,0.4,0.71,0.86,1.19,1.39
			c0.12,0.12,0.25,0.24,0.38,0.38C32.36,43.51,32.34,43.49,32.32,43.47z"/>
		<path class="st0" d="M33.59,44.7L33.59,44.7l-0.16-0.15l-0.33-0.31C33.27,44.4,33.44,44.56,33.59,44.7
			C33.59,44.7,33.59,44.7,33.59,44.7C33.59,44.7,33.59,44.7,33.59,44.7z"/>
		<path class="st0" d="M35.01,45.86c0.06,0.04,0.11,0.08,0.16,0.12c0.33,0.24,0.63,0.44,0.92,0.62c0,0,0,0,0,0
			c0.68,0.43,1.35,0.76,2.44,1.28c-1.29-0.91-1.95-1.43-2.57-2.11c-0.06-0.07-0.12-0.14-0.19-0.21c-0.31-0.35-0.63-0.75-1.03-1.26
			c-2.32-1.48-2.79-1.86-4.37-3.35c0.85,1.29,1.44,1.99,2.21,2.77c0.21,0.21,0.44,0.43,0.69,0.67c0.13,0.12,0.26,0.24,0.4,0.38
			c-0.03-0.02-0.05-0.05-0.08-0.07c0,0,0,0,0,0c0.04,0.03,0.08,0.07,0.12,0.11c0.01,0.01,0.02,0.02,0.03,0.03l0.47,0.4l0.34,0.28
			c0.08,0.06,0.15,0.11,0.22,0.17c0.04,0.03,0.08,0.06,0.12,0.09c0.13,0.11,0.26,0.21,0.38,0.31c0,0,0,0,0,0
			c0.06,0.04,0.12,0.08,0.18,0.12c-0.12-0.1-0.25-0.2-0.38-0.3C35.05,45.89,35.03,45.87,35.01,45.86z"/>
		<path class="st0" d="M26.81,17.74c-0.01-0.08-0.01-0.08-0.06-0.1c-0.01,0-0.02,0.01-0.03,0.01c-0.06,0.06-0.23,0.32-0.6,1.3
			c-0.01,0.02-0.02,0.05-0.03,0.08c-0.04,0.12-0.09,0.25-0.14,0.39c-0.08,0.23-0.17,0.48-0.27,0.77c-0.04,0.11-0.07,0.22-0.11,0.34
			c-0.01,0.04-0.03,0.09-0.04,0.13c-0.16,0.61-0.17,1.15,0.25,2.98c0.02,0.08,0.08,0.18,0.16,0.04c0.01-0.02,0.04-0.08,0.04-0.1
			c0.05-0.17,0.1-0.32,0.14-0.45c0.01-0.05,0.03-0.09,0.04-0.13c0.01-0.04,0.03-0.08,0.04-0.12c0.11-0.34,0.2-0.58,0.33-0.91
			c0.02-0.05,0.04-0.1,0.06-0.15c0.01-0.03,0.03-0.06,0.04-0.1c0.12-0.28,0.27-0.63,0.48-1.12c0.02-0.05,0.08-0.17,0.11-0.34
			c0.04-0.23,0.01-0.36,0-0.37c-0.27-0.99-0.29-1.06-0.4-1.93c-0.01-0.06-0.02-0.12-0.02-0.19C26.81,17.76,26.81,17.75,26.81,17.74z
			 M27.06,20.18c0,0.01,0.01,0.04,0,0.09c0,0.02-0.01,0.04-0.02,0.07c-0.14,0.33-0.29,0.7-0.44,1.09c-0.01,0.04-0.03,0.07-0.04,0.11
			c-0.02,0.05-0.04,0.1-0.06,0.14c-0.11,0.3-0.23,0.6-0.33,0.89c-0.01,0.04-0.03,0.08-0.04,0.12c-0.01,0.04-0.03,0.08-0.04,0.12
			c-0.06,0.16-0.11,0.32-0.16,0.47c-0.01,0.02-0.02,0.03-0.03,0.05l-0.02-0.02c0,0,0,0,0,0c-0.23-1.07-0.43-1.99-0.34-2.38
			c0.02-0.07,0.05-0.16,0.09-0.26c0.11-0.34,0.27-0.79,0.42-1.23c0.05-0.14,0.1-0.28,0.15-0.41c0.11-0.28,0.21-0.54,0.29-0.72
			c0.07-0.15,0.12-0.25,0.16-0.27c0,0,0,0,0,0c0,0.01,0.01,0.01,0.01,0.02c0.01,0.05,0.01,0.1,0.02,0.15
			C26.76,18.84,26.91,19.6,27.06,20.18z"/>
		<path class="st0" d="M26.85,20.34c-0.14-0.52-0.25-1.24-0.34-1.77c-0.3,0.7-0.64,1.66-0.89,2.38c0.05,0.56,0.19,1.29,0.3,1.84
			c0.03-0.1,0.07-0.21,0.11-0.32c0.08-0.24,0.17-0.48,0.27-0.74C26.49,21.24,26.68,20.75,26.85,20.34z"/>
	</g>
	<g>
		<path class="st1" d="M54.52,3.28c-0.08,0.1-0.17,0.19-0.25,0.28l0.19,0.12C54.48,3.54,54.5,3.41,54.52,3.28z"/>
		<path class="st1" d="M54.43,3.83l-0.2-0.13C53.8,5.36,53.01,6.46,52,7.86l0.2,0.18C53.82,5.84,54.07,5,54.43,3.83z"/>
		<path class="st1" d="M56.91,3.13c0.21,0.87,0.21,0.94,0.11,2.17l0.23,0.14c0.14-1.17,0.07-1.47-0.13-2.27c0,0-0.02-0.08,0.01-0.17
			c0.03-0.09,0.2-0.26,1.01,0.1c1.93,0.9,2.2,1.04,3.97,1.92l-0.07-0.17c-4.3-2.11-4.49-2.12-4.87-2.14
			C56.91,2.72,56.84,2.83,56.91,3.13z"/>
		<path class="st1" d="M50.89,15.01c0,0.16,0,0.32,0,0.48c0.19-0.21,0.37-0.4,0.54-0.59c-0.08-0.07-0.16-0.14-0.24-0.21
			C51.08,14.8,50.98,14.9,50.89,15.01z"/>
		<path class="st1" d="M56.99,5.47c-0.16,0.72-0.36,1.34-0.61,1.92c0.08,0.06,0.16,0.11,0.24,0.16c0.29-0.7,0.44-1.27,0.61-1.94
			L56.99,5.47z"/>
		<path class="st1" d="M73.83,13.02l0.05,0.09c0.01,0.02,0.03,0.05,0.04,0.07C73.89,13.14,73.86,13.08,73.83,13.02z"/>
		<path class="st1" d="M74.08,13.9c0.25,0.35,0.25,0.35,0.35,0.4c-0.03-0.11-0.04-0.18-0.27-0.64l-0.06-0.11l-0.05-0.11
			c-0.01-0.02-0.02-0.04-0.04-0.07c0.24,0.47,0.24,0.53,0.24,0.62c-0.07-0.07-0.09-0.08-0.28-0.35c-1.51-2.07-3.31-3.68-5.61-5.22
			c0.25,0.22,0.5,0.44,0.74,0.66C71.12,10.53,72.75,12.05,74.08,13.9z"/>
		<path class="st1" d="M63.81,5.9c0-0.05,0-0.1-0.01-0.14c-0.48-0.25-0.97-0.51-1.49-0.78l0.07,0.17C62.88,5.4,63.35,5.65,63.81,5.9
			z"/>
		<path class="st1" d="M75.31,23.29c0.15,0.35,0.29,0.7,0.42,1.05l0.03-0.13C75.57,23.81,75.46,23.57,75.31,23.29z"/>
		<path class="st1" d="M76.64,28.36c0.02-1.46-0.3-2.48-0.73-3.72c-0.01,0.04-0.03,0.09-0.04,0.14
			C76.25,25.91,76.52,27.1,76.64,28.36z"/>
		<path class="st1" d="M56.99,5.47l0.23,0.15c4.05,2.52,4.05,2.52,5.33,3.33l0.03-0.21c-1.5-0.94-1.5-0.94-5.32-3.29L57.02,5.3
			c-1.08-0.67-1.08-0.67-2.56-1.62l-0.19-0.12c-0.03,0.04-0.06,0.07-0.09,0.1c0.02,0.01,0.04,0.02,0.05,0.04l0.2,0.13
			C55.24,4.36,55.43,4.49,56.99,5.47z"/>
		<path class="st1" d="M75.96,21.33C75.96,21.33,75.96,21.33,75.96,21.33c-0.14-0.71-0.27-1.09-0.5-1.54
			c-0.23-0.4-0.58-0.9-0.83-1.28l-0.01,0.28c1.03,1.44,1.1,1.77,1.26,2.59c0,0,0,0,0,0c0.1,0.61,0.12,0.98,0.07,1.49l-0.21,1.35
			l-0.03,0.13c0.02,0.06,0.04,0.12,0.07,0.18c0.03-0.08,0.06-0.17,0.08-0.25C76.13,22.56,76.14,22.43,75.96,21.33z"/>
		<path class="st1" d="M63.28,9.42c0.02-0.06,0.04-0.13,0.06-0.19c-0.07-0.05-0.14-0.09-0.21-0.13c-0.03,0.05-0.07,0.11-0.1,0.16
			C63.11,9.31,63.2,9.36,63.28,9.42z"/>
		<path class="st1" d="M71.83,15.45c-0.02,0.07-0.04,0.14-0.07,0.22c1.3,1.19,2.04,2.09,2.7,2.91l0.01-0.28
			C73.73,17.32,72.84,16.37,71.83,15.45z"/>
		<path class="st1" d="M71,14.72c-0.02,0.07-0.05,0.14-0.07,0.22c0.18,0.16,0.36,0.31,0.53,0.46c0.02-0.07,0.05-0.14,0.07-0.22
			C71.36,15.03,71.18,14.87,71,14.72z"/>
		<path class="st1" d="M74.99,16.34c0.03,0.05,0.07,0.1,0.11,0.17c0.57,1.03,0.64,1.23,1.03,2.49c-0.01-0.05-0.02-0.1-0.03-0.15
			c-0.02-0.07-0.04-0.14-0.06-0.21c-0.24-0.78-0.74-2-1.15-2.56c0.03,0.08,0.06,0.16,0.08,0.23C74.98,16.31,74.98,16.32,74.99,16.34
			z"/>
		<path class="st1" d="M74.56,16.28c0,0,0-0.01,0-0.01c-0.05-0.11-0.09-0.23-0.13-0.35c-0.06,0.17-0.06,0.45-0.03,0.81
			c0.05,0.47,0.05,1.11,0.07,1.58l-0.01,0.28c-0.06,0.74-0.18,1.69-0.31,2.48c0.04,0.07,0.08,0.14,0.12,0.21l0.07-0.2
			c0.11-0.75,0.21-1.61,0.27-2.29l0.01-0.28C74.64,17.77,74.4,17.03,74.56,16.28z"/>
		<path class="st1" d="M61.81,11.68c-0.16,0.41-0.35,0.86-0.59,1.38c-0.05,0.1-0.11,0.18-0.18,0.25c0.03,0.06,0.06,0.11,0.09,0.17
			c0.36-0.52,0.68-1.03,0.97-1.53C62.01,11.85,61.91,11.76,61.81,11.68z"/>
		<path class="st1" d="M61.91,11.41l0.15,0.12c0.05,0.04,0.1,0.09,0.16,0.15c0.18-0.55,0.34-1.21,0.48-1.95
			c-0.14,0.2-0.3,0.41-0.47,0.64C62.15,10.69,62.05,11.03,61.91,11.41z"/>
		<path class="st1" d="M59.88,13.76c-0.09,0.1-0.18,0.19-0.26,0.28c0.46,0.12,0.88,0.05,1.26-0.19c0.02-0.03,0.04-0.05,0.06-0.08
			c-0.05-0.07-0.1-0.15-0.14-0.23C60.49,13.74,60.16,13.78,59.88,13.76z"/>
		<path class="st1" d="M60.43,2.46c-0.05-0.02-0.11-0.04-0.18-0.06c0.47,0.49,0.77,0.82,0.99,1.11c0.1,0.05,0.19,0.11,0.29,0.16
			C61.26,3.31,60.95,2.98,60.43,2.46z"/>
		<path class="st1" d="M52.2,8.04L52,7.86c-0.32-0.3-0.68-0.63-1.06-0.99c0,0.11,0,0.22,0,0.33c0.28,0.27,0.59,0.56,0.91,0.85
			l0.2,0.18c0.09,0.08,0.17,0.15,0.25,0.21c0.07-0.06,0.13-0.11,0.18-0.16C52.4,8.21,52.3,8.13,52.2,8.04z"/>
		<path class="st1" d="M60.66,2.48c0.14-0.13-1.24-0.83-1.65-0.84c-0.01,0-0.02,0-0.02,0c-0.1,0.04,0.29,0.29,0.71,0.5
			c0.21,0.11,0.4,0.19,0.55,0.25c0.07,0.03,0.13,0.05,0.18,0.06C60.55,2.5,60.63,2.51,60.66,2.48z M59.76,2.11
			C59.54,2,59.37,1.89,59.35,1.85c-0.01-0.03,0.04-0.03,0.14,0c0.32,0.09,0.87,0.39,0.78,0.44C60.16,2.31,59.8,2.13,59.76,2.11z"/>
		<polygon class="st1" points="59.73,5.54 59.73,5.54 59.73,5.54 		"/>
		<path class="st1" d="M59.73,5.54c-0.01-0.08-0.01-0.16-0.02-0.24l-0.35-0.19l0.02,0.24L59.73,5.54z"/>
		<path class="st1" d="M62.81,7.31l0.08,0.04h0c0.09,0.05,0.2,0.12,0.29,0.17c-0.01-0.09-0.01-0.18-0.02-0.27l-0.29-0.17l-0.08-0.04
			L62.81,7.31z"/>
		<path class="st1" d="M72.73,14.1l-0.26-0.26l0.05,0.35l0.27,0.27C72.76,14.33,72.74,14.22,72.73,14.1z"/>
		<path class="st1" d="M69.59,11.42l0.03,0.33l0.33,0.25c-0.01-0.1-0.02-0.19-0.03-0.29c-0.06-0.06-0.12-0.12-0.18-0.18L69.59,11.42
			z"/>
		<path class="st1" d="M60.86,6.18c-0.01-0.09-0.01-0.17-0.02-0.25l-0.36-0.2l0.02,0.25L60.86,6.18z"/>
		<path class="st1" d="M62.01,6.84C62.01,6.75,62,6.67,61.99,6.58l-0.36-0.21l0.02,0.26L62.01,6.84z"/>
		<path class="st1" d="M72.09,10.42c-0.45-0.53-0.71-0.77-1.77-1.73c-0.01-0.01-0.03-0.03-0.06-0.06c-0.02-0.02-0.06-0.06-0.09-0.11
			c-0.19-0.3-0.34-0.52-0.48-0.71c-0.12-0.12-0.24-0.23-0.37-0.34c0.21,0.29,0.41,0.58,0.64,0.92c0.02,0.03,0.14,0.19,0.3,0.37
			c0.1,0.11,0.18,0.18,0.24,0.23c1.25,1.09,1.76,1.72,2.14,2.18c0.02,0.03,0.04,0.04,0.05,0.05c-0.12-0.17-0.24-0.34-0.36-0.51
			C72.24,10.62,72.16,10.52,72.09,10.42z"/>
		<path class="st1" d="M70.84,8.97c-0.21-0.22-0.41-0.44-0.62-0.65c0.04,0.06,0.08,0.11,0.12,0.17C70.49,8.63,70.66,8.8,70.84,8.97z
			"/>
		<path class="st1" d="M71.81,9.95L71.81,9.95c-0.34-0.48-0.79-1.07-1.19-1.58c-0.15-0.17-0.3-0.35-0.46-0.52
			c-0.01-0.01-0.02-0.02-0.03-0.03c-0.39-0.38-0.86-0.82-1.24-1.15c0.34,0.41,0.77,0.92,1.13,1.39c0.44,0.43,0.84,0.86,1.22,1.3
			C71.44,9.56,71.64,9.77,71.81,9.95z"/>
		<path class="st1" d="M70.48,8.21l0.1,0.12c0,0,0-0.01-0.01-0.01C70.54,8.28,70.51,8.24,70.48,8.21l-0.25-0.28c0,0,0,0,0,0
			c-0.02-0.02-0.04-0.04-0.06-0.06C70.27,7.98,70.38,8.09,70.48,8.21z"/>
		<path class="st1" d="M56.13,1.06C56.05,1,55.96,0.95,55.88,0.9c0,0.02,0,0.04,0,0.06C55.97,0.99,56.05,1.03,56.13,1.06z"/>
		<path class="st1" d="M60.23,8.89C58.74,7.9,58.74,7.9,58.66,7.9c-0.07,0-0.1,0.03-0.12,0.08c-0.07,0.22-0.19,0.48-0.29,0.74
			c0.06,0.04,0.11,0.08,0.17,0.12c0.06-0.17,0.15-0.41,0.28-0.75c0.02-0.03,0.02-0.03,1.48,0.95c0.04,0.03,0.05,0.04-0.26,0.89
			c0.06,0.04,0.12,0.09,0.18,0.13C60.49,9.09,60.44,9.05,60.23,8.89z"/>
		<path class="st1" d="M58.14,9.32c0.03,0.05,0.07,0.09,0.1,0.11c1.63,1.16,1.63,1.16,1.72,0.98c0.02-0.04,0.03-0.08,0.05-0.11
			c-0.06-0.04-0.11-0.08-0.17-0.13c-0.01,0.04-0.03,0.08-0.04,0.12c-0.01,0.01-0.01,0.01-0.03,0.02c-0.02,0-0.02,0-1.46-1.02
			c-0.01-0.01-0.02-0.02-0.02-0.02c-0.01-0.01-0.01-0.02,0.05-0.2c-0.06-0.04-0.11-0.08-0.17-0.12c-0.02,0.05-0.04,0.11-0.05,0.16
			C58.1,9.14,58.08,9.22,58.14,9.32z"/>
		<path class="st1" d="M59.67,10.08l0.01-0.02C59.3,9.78,58.92,9.5,58.5,9.19l-0.02,0.05L59.67,10.08z"/>
		<path class="st1" d="M58.84,8.28l-0.25,0.66c0.39,0.28,0.77,0.56,1.18,0.85l0.26-0.72L58.84,8.28z"/>
		<path class="st1" d="M70.21,8.32c0.21,0.21,0.42,0.42,0.62,0.65c0.42,0.46,0.84,0.94,1.25,1.45c0.08,0.1,0.15,0.2,0.23,0.3
			c-0.05-0.07-0.1-0.14-0.16-0.21c-0.29-0.39-0.6-0.77-0.93-1.15c-0.38-0.44-0.78-0.87-1.22-1.3c-0.16-0.16-0.32-0.31-0.49-0.47
			c-0.12-0.11-0.24-0.22-0.37-0.33c-0.85-0.76-1.82-1.52-2.96-2.3c-0.25-0.17-0.5-0.34-0.77-0.51c-0.58-0.38-1.2-0.76-1.87-1.15
			c0,0,0,0,0,0c-0.06-0.07-0.16-0.16-0.3-0.26c-0.16-0.12-0.37-0.25-0.56-0.36c-0.22-0.12-0.42-0.21-0.54-0.22c0,0,0,0,0,0
			c-0.12,0.01,0.03,0.16,0.18,0.28c0.51,0.43,1.3,0.84,1.28,0.66c0,0,0-0.01,0-0.01c0,0,0,0,0,0c0.36,0.35,0.99,0.6,1.41,0.86
			c0.14,0.08,0.3,0.19,0.5,0.31c0.22,0.14,0.48,0.31,0.76,0.51c0.83,0.58,1.9,1.39,3.02,2.4c0.12,0.11,0.24,0.22,0.37,0.34
			C69.86,7.97,70.04,8.14,70.21,8.32z M63.28,3.21c-0.01,0-0.02,0-0.03,0c-0.27-0.06-0.84-0.48-0.78-0.53
			C62.52,2.64,62.86,2.81,63.1,3C63.26,3.11,63.33,3.2,63.28,3.21z"/>
		<path class="st1" d="M61.32,10.96c-0.45-0.34-0.84-0.63-1.21-0.91c-0.06-0.04-0.12-0.09-0.18-0.13c-0.05-0.04-0.11-0.08-0.16-0.12
			c-0.4-0.3-0.79-0.57-1.18-0.85c-0.05-0.04-0.11-0.08-0.16-0.12c-0.06-0.04-0.11-0.08-0.17-0.12c-0.49-0.35-1.02-0.72-1.64-1.15
			c-0.08-0.05-0.16-0.11-0.24-0.16c-0.05-0.04-0.1-0.07-0.16-0.11c0,0-0.01,0.01-0.01,0.01c0.07-0.09,0.12-0.2,0.11-0.34
			c0-0.02,0-0.04-0.01-0.06c-0.06-0.32-0.47-0.76-1.09-0.73c-0.67,0.09-0.74,0.73-0.28,1.11c0.35,0.29,0.83,0.32,1.12,0.15
			c-0.01,0.01-0.02,0.02-0.03,0.02c0.08,0.06,0.17,0.12,0.25,0.17c0.08,0.06,0.16,0.11,0.24,0.17c0.63,0.44,1.17,0.82,1.65,1.17
			c0.06,0.04,0.11,0.08,0.17,0.12c0.06,0.04,0.11,0.08,0.16,0.12c0.42,0.31,0.8,0.58,1.18,0.86c0.05,0.04,0.11,0.08,0.16,0.12
			c0.06,0.04,0.11,0.08,0.17,0.13c0.37,0.27,0.74,0.55,1.15,0.86l-0.28,0.33c-0.37,0.46-0.45,1.03-0.23,1.69
			c0.04,0.13,0.09,0.25,0.15,0.36c0.04,0.08,0.09,0.15,0.14,0.23c0.07-0.09,0.13-0.19,0.2-0.28c-0.03-0.06-0.06-0.11-0.09-0.17
			c-0.3-0.63-0.2-1.21,0.12-1.61l0.28-0.33c0.11,0.08,0.24,0.18,0.37,0.3c0.1,0.08,0.2,0.17,0.29,0.27c0.05-0.08,0.1-0.17,0.14-0.25
			c-0.01-0.01-0.01-0.01-0.02-0.02c-0.06-0.06-0.12-0.11-0.16-0.15l-0.15-0.12l-0.3-0.23v0c0.23-0.3,0.44-0.56,0.63-0.81
			c0.17-0.23,0.33-0.44,0.47-0.64c0.11-0.16,0.22-0.31,0.32-0.47c0.03-0.05,0.07-0.11,0.1-0.16c0.17-0.27,0.32-0.55,0.48-0.87
			c0.06-0.28,0.11-0.56,0.14-0.83c-0.27-0.18-0.45-0.51-0.31-0.62c0.08-0.06,0.22-0.04,0.36,0.04c0-0.08,0.01-0.15,0.01-0.23
			c-0.15-0.09-0.32-0.14-0.48-0.15c-0.48,0.05-0.3,0.64,0.18,1.05c0.03,0.02,0.05,0.04,0.08,0.07c-0.01-0.01-0.01-0.01-0.02-0.01
			c-0.27,0.53-0.48,0.94-0.74,1.37c-0.12,0.2-0.25,0.4-0.41,0.62C62.16,9.92,61.81,10.37,61.32,10.96z M55.58,7.21
			c-0.47-0.02-0.7-0.46-0.45-0.67c0.25-0.21,0.76-0.01,0.81,0.33C55.96,6.99,55.9,7.2,55.58,7.21z"/>
		<path class="st1" d="M76.1,18.85c0.01,0.05,0.02,0.1,0.03,0.15c0.31,1.74,0.34,3.4-0.25,5.28c-0.03,0.08-0.05,0.16-0.08,0.25
			c0.03,0.08,0.05,0.16,0.08,0.24c0.01-0.05,0.03-0.09,0.04-0.14c0.51-1.8,0.74-2.98,0.31-5.27C76.18,19.19,76.14,19.02,76.1,18.85z
			"/>
		<path class="st1" d="M75.08,17.01c0.05-0.06,0.02-0.33-0.09-0.68c0-0.01-0.01-0.02-0.01-0.04c-0.02-0.08-0.05-0.15-0.08-0.23
			c-0.16-0.43-0.38-0.85-0.52-0.9c0,0-0.1,0.01-0.04,0.11l-0.02-0.04c-1.43-2.22-3.17-4.27-5.2-6.15c-0.24-0.22-0.49-0.44-0.74-0.66
			c-2.01-1.75-4.29-3.34-6.84-4.76c-0.1-0.05-0.19-0.11-0.29-0.16c-1.6-0.88-3.3-1.7-5.11-2.45c-0.08-0.03-0.16-0.07-0.25-0.1
			c0-0.02,0-0.04,0-0.06c-0.01-0.14-0.03-0.28-0.07-0.41c-0.06,0-0.12,0-0.18,0c0.03,0.09,0.04,0.18,0.04,0.29c0,0.03,0,0.05,0,0.08
			c0,0,0,0,0,0.01c-0.25-0.1-0.51-0.2-0.78-0.3c-0.04-0.02-0.09-0.03-0.13-0.05c-0.02-0.01-0.05-0.02-0.07-0.03
			c-0.06,0-0.13,0-0.19,0c0.28,0.11,0.58,0.23,0.92,0.36c0.08,0.03,0.16,0.06,0.24,0.1c-0.01,0.02-0.01,0.04-0.02,0.06
			c-0.03,0.1-0.07,0.2-0.11,0.32c-0.01,0.04-0.03,0.07-0.05,0.11c-0.01,0.02-0.02,0.05-0.03,0.07c-0.15,0.33-0.41,0.75-0.88,1.33
			c-0.08,0.1-0.16,0.2-0.26,0.3c-0.08,0.09-0.16,0.18-0.25,0.28c-0.03,0.03-0.06,0.07-0.09,0.1C53.79,3.7,53.6,3.9,53.39,4.11
			c-0.8,0.79-1.61,1.57-2.44,2.33c0,0.13,0,0.26,0,0.39c0.86-0.79,1.7-1.6,2.52-2.42c0.17-0.17,0.43-0.43,0.71-0.73
			c0.03-0.03,0.06-0.07,0.09-0.1c0.08-0.09,0.17-0.19,0.25-0.28c0.44-0.52,0.9-1.11,1.16-1.67c0.01-0.02,0.02-0.05,0.03-0.07
			c0.02-0.04,0.03-0.08,0.05-0.12c0.03-0.08,0.06-0.16,0.08-0.24c0.01-0.04,0.02-0.09,0.03-0.13c0.04,0.02,0.09,0.04,0.13,0.06
			c0.15,0.07,0.3,0.13,0.45,0.2c1.83,0.81,3.49,1.65,4.99,2.5c0.09,0.05,0.19,0.11,0.28,0.16c2.29,1.31,4.23,2.65,5.86,3.97
			c0.29,0.23,0.57,0.47,0.84,0.7c2.88,2.47,4.72,4.85,5.89,6.8c0.03,0.16,0.07,0.32,0.12,0.49c0.04,0.12,0.08,0.24,0.13,0.35
			C74.76,16.74,75,17.11,75.08,17.01z M74.52,15.58c0.04-0.02,0.13,0.11,0.22,0.3c0.04,0.09,0.08,0.19,0.12,0.3
			c0,0.01,0.01,0.02,0.01,0.03c0.05,0.16,0.11,0.42,0.02,0.39c-0.09-0.06-0.19-0.26-0.27-0.46c-0.05-0.12-0.08-0.25-0.1-0.35
			C74.5,15.67,74.49,15.59,74.52,15.58z"/>
		<path class="st1" d="M57.4,0.49c0.03,0.01,0.07,0.02,0.1,0.03c-0.02-0.01-0.03-0.02-0.05-0.03C57.43,0.49,57.41,0.49,57.4,0.49z"
			/>
		<path class="st1" d="M73.72,19.77l-0.12,0.31c0.08,0.13,0.14,0.25,0.21,0.39l0.12-0.31L73.72,19.77z"/>
		<path class="st1" d="M74.89,22.41c0.06,0.12,0.12,0.24,0.17,0.36l0.03-0.08l-0.16-0.4L74.89,22.41z"/>
		<path class="st1" d="M74.48,21.63l0.08-0.22l-0.19-0.4l-0.02,0.06l-0.07,0.2C74.35,21.39,74.42,21.51,74.48,21.63z"/>
		<path class="st1" d="M72.17,17.36l-0.12,0.3c0.09,0.13,0.18,0.25,0.26,0.37l0.12-0.31L72.17,17.36z"/>
		<path class="st1" d="M72.99,18.55l-0.12,0.31c0.08,0.13,0.16,0.25,0.24,0.38l0.12-0.31L72.99,18.55z"/>
		<path class="st1" d="M72.11,14.45c0.01-0.1,0.01-0.22-0.04-0.42c-0.01-0.02-0.06-0.18-0.29-0.53c-0.05-0.07-0.11-0.15-0.17-0.24
			c-0.61-0.82-2-2.35-5.14-4.92c-0.23-0.17-0.39-0.24-0.57-0.25c-0.1,0.02-0.15,0.02-0.24,0.22c0.1,0.15,0.19,0.31,0.28,0.46
			c0.03-0.08,0.06-0.15,0.08-0.24c0.03-0.1,0.17-0.13,0.39,0.04c1.47,1.21,2.54,2.18,3.33,2.95c0.06,0.06,0.12,0.12,0.18,0.18
			c0.28,0.27,0.51,0.52,0.71,0.73c0.12,0.12,0.22,0.24,0.32,0.35c0.69,0.78,0.85,1.11,0.85,1.12c0.03,0.1,0.02,0.15,0.02,0.2
			c-0.1,0.39-0.2,0.74-0.3,1.07c-0.02,0.07-0.05,0.15-0.07,0.22c-0.16,0.52-0.33,0.96-0.5,1.35c0.1,0.12,0.21,0.24,0.31,0.36
			c0.19-0.49,0.36-1,0.49-1.43c0.02-0.08,0.05-0.15,0.07-0.22C72,14.88,72.11,14.47,72.11,14.45z"/>
		<path class="st1" d="M71.29,13.74c-1.03-1.16-1.74-1.89-2.53-2.62c-0.07-0.07-0.14-0.13-0.22-0.2c-0.24-0.22-0.5-0.45-0.77-0.69
			c-0.11-0.1-0.23-0.2-0.36-0.31c-0.26-0.22-0.53-0.46-0.84-0.71c-0.01,0.04-0.02,0.07-0.04,0.11c-0.03,0.08-0.06,0.16-0.08,0.23
			c-0.01,0.03-0.02,0.05-0.03,0.08c0.75,1.37,1.41,2.84,1.96,4.4c0.7,0.69,1.38,1.41,2.05,2.14c0.21-0.45,0.36-0.83,0.49-1.23
			c0.02-0.07,0.05-0.14,0.07-0.22C71.1,14.42,71.19,14.11,71.29,13.74z"/>
		<path class="st1" d="M60.17,13.45c0.07-0.1,0.16-0.23,0.17-0.43c0.01-0.48,0.01-0.56-4.52-3.88c-0.08-0.06-0.16-0.12-0.24-0.18
			c-0.46-0.34-0.97-0.7-1.52-1.11c-0.23-0.15-0.42-0.21-0.69-0.19c-0.14,0.02-0.21,0.03-0.87,0.62c-0.06,0.05-0.12,0.1-0.18,0.16
			c-0.33,0.29-0.77,0.7-1.38,1.27c0,0.19,0,0.39,0,0.59c0.78-0.73,1.33-1.23,1.72-1.57c0.07-0.06,0.13-0.11,0.18-0.16
			c0.72-0.61,0.8-0.56,0.97-0.46c0.58,0.43,1.11,0.82,1.59,1.17c0.08,0.06,0.16,0.12,0.24,0.18c4.25,3.15,4.24,3.26,4.24,3.46
			c0,0.09-0.05,0.16-0.08,0.21c-0.16,0.17-0.31,0.33-0.46,0.49c-0.07,0.07-0.14,0.15-0.21,0.22c-0.95,1.01-1.7,1.79-2.29,2.4
			c-0.08,0.08-0.15,0.15-0.22,0.23c-1.88,1.93-2.02,1.94-2.14,1.96c-0.17-0.01-0.22-0.03-0.35-0.13c-1.06-0.93-2.15-1.82-3.23-2.72
			c0,0.23,0,0.46,0,0.69c0.97,0.79,1.95,1.56,2.88,2.38c0.66,0.54,0.83,0.67,3.24-1.84c0.07-0.07,0.14-0.15,0.22-0.23
			c0.64-0.67,1.42-1.5,2.39-2.54c0.09-0.09,0.17-0.19,0.26-0.28C59.97,13.66,60.07,13.55,60.17,13.45z"/>
		<path class="st1" d="M58.39,13.37c0.06-0.07,0.13-0.13,0.19-0.2c0.1-0.11,0.21-0.22,0.32-0.33c-1.52-1.2-2.39-1.88-3.63-2.81
			c-0.08-0.06-0.16-0.12-0.24-0.18c-0.42-0.32-0.89-0.67-1.44-1.08c-0.09,0.09-0.18,0.17-0.25,0.25c-0.06,0.06-0.12,0.12-0.18,0.17
			c-0.48,0.47-0.87,0.83-2.15,2.05c-0.03,0.03-0.06,0.06-0.1,0.09c-0.01,1-0.01,2.04-0.02,3.12c0.1,0.09,0.2,0.17,0.29,0.25
			c0.09,0.07,0.17,0.14,0.24,0.21c1.28,1.08,1.67,1.42,2.98,2.55c0.61-0.62,1.11-1.12,1.52-1.54c0.08-0.08,0.15-0.15,0.22-0.22
			C57.19,14.62,57.68,14.11,58.39,13.37z"/>
	</g>
	<g>
		<path class="st1" d="M48.49,17.5l0.24,0.23c0.24-0.24,0.46-0.47,0.67-0.69l-0.13-0.12l0.35-0.35c0.04,0.03,0.08,0.07,0.13,0.11
			c0.26-0.27,0.5-0.53,0.73-0.76c-0.08-0.07-0.17-0.14-0.25-0.21C49.7,16.26,49.16,16.82,48.49,17.5z"/>
		<path class="st1" d="M48.29,8.48l-0.2,0.19c0.05,0.06,0.11,0.12,0.16,0.18c0.07-0.06,0.14-0.12,0.2-0.18
			C48.41,8.6,48.35,8.54,48.29,8.48z"/>
		<path class="st1" d="M50.79,11.43c0.04-0.04,0.08-0.08,0.12-0.11c0-0.06,0-0.12,0-0.18c-0.15-0.14-0.3-0.28-0.45-0.42
			c-0.07,0.06-0.14,0.13-0.21,0.2C50.42,11.08,50.6,11.25,50.79,11.43z"/>
		<path class="st1" d="M49.94,10.62c0.07-0.07,0.14-0.13,0.21-0.19c-0.5-0.49-1-0.99-1.49-1.53c-0.07,0.06-0.13,0.12-0.2,0.18
			C48.92,9.56,49.37,10.05,49.94,10.62z"/>
		<path class="st1" d="M47.7,1c0-0.07,0-0.14,0.01-0.2c-0.33,0.56-0.63,1.42,0.39,3.09c0.05-0.04,0.11-0.08,0.16-0.12
			C47.66,2.78,47.36,1.81,47.7,1z"/>
		<path class="st1" d="M50.54,6.81c0.06-0.05,0.12-0.11,0.18-0.16C49.88,5.83,49,4.88,48.38,3.94c-0.05,0.04-0.11,0.09-0.16,0.13
			C48.7,4.81,49.44,5.71,50.54,6.81z"/>
		<path class="st1" d="M44.25,0.49c-0.02,0-0.04,0-0.05,0c-0.61,0.16-1.21,0.34-1.79,0.55c-0.05,0.02-0.11,0.04-0.16,0.06
			c-0.01,0.01-0.02,0.02-0.03,0.02C43.04,0.79,43.74,0.61,44.25,0.49z"/>
		<path class="st1" d="M40.4,2.34c-0.04,0.03-0.07,0.07-0.11,0.1c0.37-0.15,0.72-0.3,1.07-0.43c0.01-0.02,0.02-0.04,0.03-0.06
			C41.04,2.08,40.71,2.21,40.4,2.34z"/>
		<path class="st1" d="M44.64,0.85c0.08-0.04,0.16-0.07,0.24-0.11c-1.25,0.37-2.32,0.75-3.25,1.1c-0.01,0.02-0.02,0.04-0.03,0.06
			C42.71,1.48,43.72,1.14,44.64,0.85z"/>
		<path class="st1" d="M41.69,3.73c1.6-0.86,3.54-1.86,6.04-3.07c0,0,0.01-0.01,0.01-0.01c0-0.02,0.01-0.03,0.01-0.05
			c-1.45,0.68-3.67,1.74-6.13,3.05C41.64,3.68,41.66,3.71,41.69,3.73z"/>
		<path class="st1" d="M38.39,5.46c-0.01,0.05-0.02,0.1-0.03,0.16c0.89-0.53,1.88-1.1,3.05-1.74c-0.03-0.02-0.05-0.05-0.07-0.08
			C40.39,4.32,39.39,4.87,38.39,5.46z"/>
		<path class="st1" d="M48.46,8.67c-0.07,0.06-0.14,0.12-0.2,0.18c-1.97,1.74-3.96,3.47-5.85,5.3c-0.22-0.1-0.37-0.09-0.54-0.07
			c-0.18,0.04-0.34,0.12-0.46,0.21c0.07,0.1,0.14,0.2,0.22,0.3c0.32-0.24,0.76-0.1,0.77,0.29c0,0.03,0,0.07-0.01,0.1h0
			c-0.02,0.1-0.08,0.24-0.21,0.35c0.08,0.1,0.16,0.2,0.24,0.31c0.19-0.16,0.34-0.39,0.38-0.65c0.06-0.35-0.1-0.56-0.15-0.64
			c1.89-1.81,3.87-3.53,5.82-5.27c0.07-0.06,0.13-0.12,0.2-0.18c0.7-0.62,1.39-1.25,2.08-1.88c0.06-0.05,0.12-0.11,0.18-0.16
			c0.01-0.01,0.02-0.02,0.02-0.02c0-0.13,0-0.26,0-0.39c-0.08,0.07-0.15,0.14-0.23,0.21c-0.06,0.05-0.12,0.11-0.18,0.16
			C49.85,7.43,49.16,8.05,48.46,8.67z"/>
		<path class="st1" d="M39.5,11.24c1.95-1.74,2.94-2.55,8.72-7.18c0.05-0.04,0.11-0.08,0.16-0.13c0.16-0.13,0.33-0.27,0.5-0.4
			c-0.04-0.05-0.08-0.1-0.12-0.15c-0.17,0.13-0.34,0.25-0.5,0.38c-0.05,0.04-0.11,0.08-0.16,0.12c-4.56,3.48-7.25,5.78-8.73,7.11
			C39.42,11.08,39.46,11.16,39.5,11.24z"/>
		<path class="st1" d="M41.31,3.74c0.01,0.02,0.02,0.04,0.04,0.06c0.02,0.03,0.04,0.05,0.07,0.08c0.3,0.27,1.02,0.14,1.78-0.34
			c1.86-1.17,3.11-1.95,4.52-2.76c0-0.04,0.01-0.08,0.02-0.12c-1.1,0.61-2.61,1.5-4.61,2.76c-0.78,0.48-1.21,0.5-1.44,0.31
			c-0.03-0.02-0.05-0.05-0.07-0.07c-0.2-0.25-0.2-0.72-0.2-1.12l-0.24,0.13C41.18,3,41.23,3.43,41.31,3.74z"/>
		<path class="st1" d="M41.97,1.24c-0.24,0.2-0.44,0.43-0.58,0.7C41.38,1.96,41.37,1.98,41.36,2c-0.08,0.17-0.14,0.36-0.18,0.57
			c-1.08,0.61-1.4,0.79-2.08,1.24c-0.03,0.05-0.06,0.1-0.09,0.15c0.58-0.36,1.06-0.65,2.17-1.29l0.24-0.13v0
			c0.91-0.5,2.2-1.18,3.57-1.79c0.08-0.03,0.16-0.07,0.23-0.1c0.12-0.05,0.24-0.1,0.37-0.16c-0.04,0-0.08,0-0.11,0
			c-0.19,0.08-0.38,0.16-0.59,0.25c-0.08,0.04-0.16,0.07-0.24,0.11c-0.92,0.41-1.98,0.93-3.22,1.59c0.06-0.19,0.12-0.37,0.19-0.53
			c0.01-0.02,0.02-0.04,0.03-0.06c0.12-0.27,0.29-0.5,0.58-0.73c0.01-0.01,0.02-0.02,0.03-0.02c0.01-0.01,0.02-0.01,0.03-0.02
			C42.17,1.13,42.07,1.18,41.97,1.24z"/>
		<path class="st1" d="M48.86,18.03c-0.11-0.1-0.26-0.23-0.37-0.33l-0.35,0.36l0.37,0.33c0.11-0.11,0.22-0.23,0.34-0.34
			C48.85,18.05,48.86,18.04,48.86,18.03z"/>
		<path class="st1" d="M49.27,16.93l0.13,0.12l0.23,0.21c0.11-0.11,0.22-0.22,0.33-0.34h0c0,0,0.01-0.01,0.02-0.02
			c-0.07-0.06-0.16-0.14-0.24-0.21c-0.04-0.04-0.09-0.08-0.13-0.11L49.27,16.93z"/>
		<path class="st1" d="M47.73,19.2c-0.11-0.1-0.26-0.23-0.37-0.33l-0.35,0.37l0.37,0.33c0.11-0.12,0.22-0.23,0.34-0.35
			C47.72,19.21,47.73,19.2,47.73,19.2z"/>
		<path class="st1" d="M47.98,12.44c-0.36,0.41-0.37,0.8-0.01,1.18c0.7,0.75,1.46,1.44,2.24,2.1c0.08,0.07,0.17,0.14,0.25,0.21
			c0.14,0.11,0.27,0.23,0.41,0.34c0-0.23,0-0.46,0-0.69c-0.02-0.01-0.03-0.03-0.05-0.04c-0.08-0.07-0.17-0.14-0.25-0.21
			c-0.77-0.66-1.54-1.33-2.27-2.03c-0.1-0.1-0.23-0.3,0-0.57c0.75-0.7,1.39-1.3,1.93-1.81c0.07-0.07,0.14-0.13,0.21-0.2
			c0.16-0.15,0.31-0.29,0.45-0.42c0-0.2,0-0.39,0-0.59c-0.23,0.21-0.49,0.45-0.77,0.71c-0.07,0.06-0.14,0.13-0.21,0.19
			C49.39,11.13,48.75,11.73,47.98,12.44z"/>
		<path class="st1" d="M49.16,12.97c0.71,0.6,1.27,1.07,1.73,1.46c0.01-1.08,0.01-2.12,0.02-3.12c-0.04,0.04-0.08,0.07-0.12,0.11
			C50.35,11.85,49.82,12.35,49.16,12.97z"/>
		<path class="st1" d="M40.53,4.76c-0.05-0.07-0.09-0.1-0.24-0.07c-0.23,0.06-1.16,0.72-2.01,1.35c-0.01,0.09-0.02,0.18-0.03,0.28
			c1.87-1.41,1.91-1.35,1.93-1.32c0.5,1.02,0.52,1.06,1.09,1.84c0,0,0.02,0.03,0,0.09c-0.02,0.03-0.04,0.05-0.06,0.07
			c-1.4,1.11-1.83,1.45-2.6,2.11c0.03,0.1,0.06,0.2,0.1,0.3c1.33-1.13,1.51-1.28,2.67-2.2c0.07-0.06,0.16-0.14,0.21-0.25
			c0.13-0.23,0.13-0.23-0.55-1.21C40.86,5.47,40.67,5.07,40.53,4.76z"/>
		<path class="st1" d="M39.72,5.66c-0.44,0.33-0.98,0.73-1.48,1.11c0,0.59,0.08,1.2,0.24,1.83c0.63-0.52,1.41-1.14,2.01-1.61
			C40.24,6.6,39.94,6.07,39.72,5.66z"/>
	</g>
	<g>
		<path class="st1" d="M75.33,23.8l0.08-0.22l0.13,0.41l-0.05,0.13c0.06,0.12,0.13,0.26,0.21,0.41l0.03-0.17
			c-0.12-0.33-0.25-0.66-0.4-1.01c-0.08-0.14-0.17-0.3-0.29-0.49l-0.06,0.17c-0.05-0.14-0.1-0.26-0.16-0.4l0.02-0.07
			c-0.15-0.23-0.34-0.52-0.58-0.89l-0.07,0.29C74.74,22.7,74.83,22.83,75.33,23.8z"/>
		<path class="st1" d="M74.03,21.73l0.07-0.29c-1.33-1.68-2.37-2.8-3.18-3.51c-0.05,0.1-0.1,0.2-0.15,0.3
			C72.4,19.73,72.96,20.42,74.03,21.73z"/>
		<path class="st1" d="M64.95,23.15c0.08,0.09,0.16,0.18,0.24,0.28c0.15-0.23,0.3-0.46,0.43-0.68c-0.08-0.1-0.17-0.2-0.26-0.3
			C65.23,22.68,65.1,22.91,64.95,23.15z"/>
		<path class="st1" d="M68.11,17.92c-0.08-0.09-0.15-0.17-0.23-0.26c-0.08,0.17-0.37,0.78-0.82,1.65c0.09,0.1,0.18,0.21,0.28,0.31
			C67.61,19.07,67.87,18.5,68.11,17.92z"/>
		<path class="st1" d="M75.87,24.78c-0.01,0.04-0.02,0.07-0.03,0.11c0.18,0.5,0.33,0.96,0.44,1.37
			C76.17,25.78,76.04,25.29,75.87,24.78z"/>
		<path class="st1" d="M67.2,19.91c-0.09-0.11-0.19-0.21-0.28-0.32c-0.36,0.7-0.81,1.54-1.32,2.44c0.09,0.1,0.18,0.21,0.27,0.32
			C66.38,21.51,66.81,20.71,67.2,19.91z"/>
		<path class="st1" d="M76.64,28.44c-0.03-0.23-0.06-0.46-0.09-0.7c0.07,0.81,0.01,1.54-0.1,2.4c0.02-0.07,0.04-0.15,0.06-0.23
			l-0.01,0.06l0.01-0.06C76.59,29.37,76.63,28.89,76.64,28.44z"/>
		<path class="st1" d="M68.76,17.17c-0.09-0.1-0.18-0.2-0.27-0.3c-0.2,0.1-0.33,0.26-0.43,0.43c0.08,0.09,0.15,0.17,0.23,0.26
			C68.4,17.41,68.55,17.25,68.76,17.17z"/>
		<path class="st1" d="M69.98,17.49c0.15,0.14,0.3,0.27,0.43,0.39c0.05-0.08,0.1-0.17,0.15-0.27c-0.23-0.19-0.44-0.34-0.64-0.45
			c-0.04,0.07-0.08,0.14-0.12,0.21C69.86,17.41,69.92,17.45,69.98,17.49z"/>
		<polygon class="st1" points="76.42,30.37 76.45,30.2 76.42,30.37 		"/>
		<path class="st1" d="M72.66,39.56l0.23-0.36c0.46-0.74,0.46-0.74,0.99-2.12c-0.01,0.02-0.02,0.04-0.04,0.06
			c-0.02,0.03-0.03,0.05-0.05,0.08c0,0,0,0,0,0.01l-0.07,0.11c-0.26,0.82-0.3,0.9-0.96,2.04c0.04-0.06,0.09-0.12,0.13-0.18
			L72.66,39.56z"/>
		<path class="st1" d="M74.35,35.77c-0.17,0.07-0.5,0.69-0.68,1.11c-0.14,0.33-0.19,0.53-0.18,0.6c0,0.09,0.07,0.04,0.11,0.01
			c0.05-0.05,0.12-0.14,0.2-0.26c0.02-0.03,0.03-0.05,0.05-0.08C74.15,36.62,74.52,35.77,74.35,35.77z M73.74,37.13
			c0,0-0.01,0-0.01,0c-0.05,0.01-0.01-0.14,0.08-0.36c0.14-0.32,0.33-0.62,0.38-0.6C74.27,36.2,73.93,37,73.74,37.13z"/>
		<path class="st1" d="M75.51,25.27c0.1-0.25,0.2-0.5,0.28-0.74c-0.02-0.06-0.04-0.12-0.06-0.18l-0.03,0.17
			C75.64,24.78,75.58,25.03,75.51,25.27z"/>
		<path class="st1" d="M73.29,30.57c0.02,0.1,0.04,0.2,0.06,0.3c1.24-2.13,1.82-3.85,2.19-5.2c-0.15,0.34-0.28,0.64-0.42,0.92
			C74.64,28.02,74,29.35,73.29,30.57z"/>
		<path class="st1" d="M71.37,33.45c0.03-0.01,0.06-0.01,0.1-0.02c0.06,0.01,0.11,0.03,0.16,0.05c0.6-0.81,1.11-1.58,1.54-2.31
			c-0.02-0.1-0.04-0.2-0.06-0.3C72.56,31.8,71.96,32.66,71.37,33.45z"/>
		<path class="st1" d="M72.03,26.88c0.04,0.1,0.09,0.2,0.13,0.3c1.02-1.92,1.52-3.45,2.03-5.23l0.07-0.29
			c0.01-0.07,0.03-0.15,0.04-0.23c-0.01-0.03-0.03-0.06-0.04-0.08l0.03-0.07c-0.04-0.07-0.08-0.14-0.12-0.21
			c-0.02,0.13-0.04,0.26-0.06,0.38l-0.07,0.29C73.45,23.83,72.78,25.45,72.03,26.88z"/>
		<path class="st1" d="M69.49,31.01c0.02,0.02,0.04,0.04,0.06,0.06c0,0,0,0.01,0.01,0.01c0.01,0.02,0.02,0.03,0.04,0.06
			c0.01,0.02,0.02,0.03,0.03,0.05c0,0.01,0.01,0.01,0.01,0.02c1.02-1.45,1.78-2.66,2.37-3.74c-0.04-0.1-0.08-0.2-0.13-0.29
			C71.17,28.49,70.37,29.68,69.49,31.01z"/>
		<path class="st1" d="M60.58,48.78c0,0.01-0.01,0.01-0.01,0.02c0.17-0.07,0.35-0.13,0.53-0.2c1.7-0.84,3.74-2.01,5.93-3.63
			c0.56-0.44,1.07-0.84,1.48-1.27c-0.24,0.17-0.48,0.34-0.73,0.52C66.06,45.76,63.23,47.48,60.58,48.78z"/>
		<path class="st1" d="M68.1,43.89c0.22-0.15,0.43-0.31,0.63-0.46c0.28-0.32,0.5-0.65,0.66-1.02c-0.09,0.07-0.17,0.13-0.26,0.2
			C68.91,43.02,68.56,43.45,68.1,43.89z"/>
		<path class="st1" d="M69.56,31.07C69.56,31.07,69.56,31.07,69.56,31.07c-0.1-0.12-0.24-0.19-0.43-0.19
			c-0.13,0.01-0.25,0.06-0.35,0.13c-0.09,0.09-0.18,0.18-0.27,0.27c-0.17,0.23-0.27,0.52-0.27,0.8c-0.01,0.72,0.57,1,1.08,0.52
			c0.39-0.38,0.52-1.03,0.32-1.42c-0.01-0.02-0.02-0.04-0.03-0.05C69.58,31.11,69.57,31.09,69.56,31.07z M68.93,32.4
			c-0.29,0.03-0.36-0.25-0.36-0.41c0.01-0.42,0.39-0.78,0.65-0.62C69.54,31.55,69.4,32.29,68.93,32.4z"/>
		<path class="st1" d="M64.11,46.3c0.35-0.19,0.69-0.37,1.02-0.55c0.5-0.38,0.85-0.71,0.91-0.95c0-0.03,0.01-0.05,0.01-0.08
			c-0.12,0.07-0.23,0.14-0.35,0.21c0,0.04,0,0.08-0.01,0.12C65.63,45.24,65.06,45.68,64.11,46.3z"/>
		<path class="st1" d="M60.7,48.28c0,0.04-0.01,0.07-0.02,0.11c1.13-0.6,2.77-1.5,3.94-2.29c-0.4,0.21-0.8,0.43-1.23,0.64
			C62.66,47.2,61.75,47.72,60.7,48.28z"/>
		<path class="st1" d="M65.12,45.35c0-0.02,0-0.05,0-0.07c-1.51,0.89-2.67,1.45-2.84,1.45c0,0,0,0-0.03-0.01
			c-0.01-0.01-0.01-0.02-0.01-0.03c-0.41,0.4-0.84,0.79-1.31,1.17c0.35-0.16,0.68-0.32,1.01-0.47C62.9,46.83,63.7,46.31,65.12,45.35
			z"/>
		<path class="st1" d="M60.72,48.04c0,0.01,0,0.03,0,0.04c0.19-0.11,0.38-0.21,0.55-0.3c-0.17,0.08-0.34,0.16-0.51,0.23
			C60.75,48.02,60.74,48.03,60.72,48.04z"/>
		<path class="st1" d="M62.6,46.39c0.01,0.02,0.02,0.04,0.03,0.06c0,0,0,0,0,0c0.01,0,0.92-0.39,2.49-1.32
			c0-0.1,0.01-0.19,0.01-0.28c-0.56,0.34-1.18,0.7-1.87,1.07c0.13-0.24,0.26-0.49,0.39-0.76c-0.31,0.36-0.64,0.72-0.98,1.08
			c-0.01,0.02-0.02,0.04-0.03,0.05C62.63,46.34,62.62,46.37,62.6,46.39z"/>
		<path class="st1" d="M68.33,22.6c0.04,0.17,0.13,0.27,0.17,0.31c0.66,0.67,1.52,1.59,2.15,2.29c0.02,0.02,0.04,0.04,0.06,0.06
			c0,0,0.12,0.09,0.25,0.04c-0.14-0.26-0.28-0.51-0.42-0.76c-0.59-0.64-1.31-1.39-1.87-1.96c-0.03-0.03-0.03-0.05-0.04-0.07
			c-0.01-0.05,0.01-0.09,0.01-0.1c0.07-0.14,0.14-0.28,0.21-0.44c-0.09-0.12-0.17-0.23-0.26-0.35c-0.08,0.19-0.17,0.37-0.24,0.56
			C68.29,22.35,68.31,22.5,68.33,22.6z"/>
		<path class="st1" d="M72.3,21.4c-1.49-1.58-2-2.06-2.22-2.21c-0.14,0.12-0.29,0.19-0.44,0.19c-0.28,0.66-0.6,1.3-0.9,1.95
			c0.09,0.12,0.18,0.23,0.26,0.35c0.33-0.7,0.67-1.47,0.93-2.1c0.04-0.09,0.07-0.15,2.26,2.16c0.13,0.15-0.48,1.47-1.2,3.02
			c0.06,0.12,0.13,0.23,0.19,0.35c0,0,0,0,0,0C72.69,21.87,72.61,21.78,72.3,21.4z"/>
		<path class="st1" d="M71.89,21.88c-0.53-0.55-1.24-1.29-1.79-1.82c-0.25,0.58-0.57,1.32-0.86,1.95c0.48,0.66,0.92,1.33,1.32,2.01
			c0.1,0.1,0.19,0.2,0.27,0.3C71.16,23.59,71.6,22.62,71.89,21.88z"/>
		<path class="st1" d="M69.56,22.97c-0.15-0.22-0.31-0.44-0.46-0.66c-0.02,0.04-0.04,0.08-0.06,0.12
			C69.2,22.6,69.38,22.78,69.56,22.97z"/>
		<path class="st1" d="M76.45,30.15c-0.33,1.35-0.38,1.49-0.89,2.59c0,0.01,0,0.01,0,0.02c0.02-0.13,0.01-0.23-0.03-0.25
			c-0.29,0.04-0.74,1.77-0.63,1.87c0.07,0.06,0.25-0.25,0.42-0.71c0.08-0.22,0.16-0.49,0.21-0.72c0,0.02-0.01,0.03-0.01,0.06
			c0.66-1.52,0.7-1.61,0.92-2.64v0l0.03-0.17l0.03-0.17l0.01-0.06l0.01-0.06C76.48,30,76.47,30.08,76.45,30.15z M75.27,33.57
			c-0.06,0.16-0.17,0.42-0.23,0.39c-0.1-0.15,0.28-1.04,0.35-1.03C75.45,32.95,75.39,33.25,75.27,33.57z"/>
		<path class="st1" d="M72.41,38.76c0.11-0.03,0.35-0.3,0.56-0.65c0.29-0.47,0.5-1,0.36-1.05c-0.09,0-0.18,0.11-0.29,0.24
			C72.57,37.88,72.17,38.81,72.41,38.76z M73.13,37.45c0.08,0.01-0.02,0.29-0.19,0.58c-0.08,0.13-0.26,0.38-0.33,0.36
			C72.47,38.25,73.03,37.44,73.13,37.45z"/>
		<path class="st1" d="M75.79,24.53c-0.08,0.24-0.17,0.49-0.28,0.74c-0.52,1.26-1.32,2.64-2.48,4.21c-0.26-0.79-0.55-1.56-0.87-2.31
			c-0.04-0.1-0.09-0.2-0.13-0.3c-0.27-0.61-0.55-1.2-0.87-1.78c-0.06-0.12-0.12-0.23-0.19-0.35c-0.14-0.24-0.28-0.49-0.42-0.73
			c-0.4-0.68-0.84-1.35-1.32-2.01c-0.08-0.11-0.16-0.22-0.24-0.33c-0.09-0.12-0.17-0.23-0.26-0.35c-0.43-0.57-0.9-1.13-1.39-1.7
			c-0.09-0.1-0.18-0.21-0.28-0.31c-0.26-0.29-0.52-0.58-0.8-0.87c-0.05,0.08-0.1,0.17-0.16,0.26c0.27,0.29,0.55,0.59,0.82,0.89
			c0.09,0.11,0.19,0.21,0.28,0.32c0.48,0.55,0.94,1.12,1.4,1.72c0.09,0.11,0.17,0.23,0.26,0.35c0.08,0.11,0.16,0.22,0.24,0.33
			c0.16,0.22,0.31,0.44,0.46,0.66c0.34,0.51,0.67,1.03,0.99,1.57c0.14,0.25,0.28,0.5,0.42,0.76c0.32,0.6,0.63,1.22,0.92,1.87
			c0.04,0.1,0.09,0.2,0.13,0.29c0.31,0.72,0.59,1.47,0.84,2.25c-1.42,1.7-2.74,3.13-4.75,4.92c0.04,0.08,0.07,0.15,0.1,0.23
			c1.88-1.67,3.3-3.16,4.72-4.87c0.06,0.27,0.12,0.57,0.18,0.88c0.02,0.1,0.04,0.2,0.06,0.3c0.29,1.6,0.48,3.69-0.2,6.2l0.07-0.08
			l0.09-0.1l0.01-0.02c0.31-1.39,0.76-3.41,0.21-6.31c-0.02-0.1-0.04-0.2-0.06-0.3c-0.05-0.26-0.12-0.53-0.19-0.81
			c0.94-1.3,1.47-2.06,2.02-3.17c0.14-0.28,0.28-0.58,0.42-0.92c0.05-0.11,0.1-0.23,0.15-0.35c0.03,0.11,0.05,0.19,0.06,0.27
			l0.12-0.32l-0.06-0.27h0c0.01-0.04,0.02-0.08,0.03-0.12c0.01-0.04,0.02-0.07,0.03-0.11C75.85,24.7,75.82,24.61,75.79,24.53z"/>
		<path class="st1" d="M74.98,23.01l0.06-0.17l0.03-0.09c-0.06-0.12-0.11-0.24-0.17-0.36l-0.05,0.14l-0.02,0.07
			C74.88,22.75,74.93,22.87,74.98,23.01z"/>
		<path class="st1" d="M76.24,29.96l-0.11,0.3c-0.01,0.13-0.02,0.26-0.03,0.39l0.11-0.3L76.24,29.96z"/>
		<path class="st1" d="M76.28,28.71l-0.12,0.31c0,0.14,0,0.25,0,0.39l0.11-0.3L76.28,28.71z"/>
		<path class="st1" d="M76.11,31.2L76,31.49c-0.02,0.13-0.04,0.25-0.06,0.38l0.11-0.29L76.11,31.2z"/>
		<path class="st1" d="M74.96,35.2c0,0,0-0.01,0.01-0.01C74.97,35.19,74.96,35.2,74.96,35.2C74.96,35.2,74.96,35.2,74.96,35.2z"/>
		<path class="st1" d="M75.93,26.48c0.02,0.14,0.04,0.26,0.06,0.4l0.12-0.32l-0.06-0.4L75.93,26.48z"/>
		<path class="st1" d="M75.42,24.31l0.07-0.19l0.05-0.13l-0.13-0.41l-0.08,0.22l-0.04,0.1C75.34,24.05,75.37,24.17,75.42,24.31z"/>
		<path class="st1" d="M76.24,27.84l-0.03-0.4l-0.12,0.31c0.01,0.14,0.02,0.26,0.03,0.4L76.24,27.84z"/>
		<path class="st1" d="M69.14,19.11c0.16,0.18,0.33,0.27,0.49,0.27c0.15,0,0.3-0.07,0.44-0.19c0.24-0.2,0.48-0.55,0.7-0.97
			c0.05-0.1,0.1-0.19,0.15-0.3c0.13-0.26,0.24-0.55,0.35-0.83c-0.1-0.12-0.2-0.24-0.31-0.36c-0.14,0.34-0.28,0.63-0.41,0.88
			c-0.05,0.09-0.1,0.18-0.15,0.27c-0.43,0.76-0.76,1.06-0.8,1.06c-0.12-0.03-0.15-0.05-0.25-0.16c-0.4-0.47-0.75-0.86-1.06-1.22
			c-0.08-0.09-0.16-0.18-0.23-0.26c-0.25-0.28-0.49-0.54-0.73-0.79c-0.06,0.12-0.12,0.24-0.18,0.35c0.25,0.27,0.5,0.53,0.73,0.8
			c0.08,0.09,0.15,0.17,0.23,0.26C68.48,18.34,68.83,18.74,69.14,19.11z"/>
		<path class="st1" d="M69.46,17.96c0.13-0.21,0.24-0.41,0.34-0.59c0.04-0.07,0.08-0.14,0.12-0.21c0.21-0.38,0.38-0.71,0.53-1.01
			c-0.62-0.68-1.3-1.39-2.06-2.12c-0.24,0.65-0.49,1.27-0.78,1.89c0.3,0.31,0.58,0.62,0.88,0.95c0.09,0.1,0.18,0.2,0.27,0.3
			C68.98,17.42,69.21,17.68,69.46,17.96z"/>
		<path class="st1" d="M71.37,33.45c-0.11,0.02-0.22,0.07-0.39,0.24c-0.67,0.65-1.38,1.34-2.34,2.19c0.01,0.04,0.03,0.07,0.04,0.11
			c-0.04,0.12-0.09,0.25-0.14,0.39c0.61-0.53,1.24-1.11,1.89-1.73c0.2-0.2,0.41-0.39,0.62-0.6c0.04-0.03,0.15-0.14,0.26-0.15
			c0.09-0.01,0.18,0.04,0.23,0.24c0.43,5.06-1.13,7.15-1.45,7.51c-0.13,0.15-0.22,0.23-0.31,0.3c-0.1,0.08-0.21,0.16-0.31,0.24
			c-0.08,0.06-0.15,0.11-0.23,0.17c-1.2,0.9-2.28,1.63-3.2,2.21c-0.12,0.08-0.24,0.15-0.36,0.23c-0.2,0.12-0.39,0.24-0.58,0.35
			c-1.57,0.93-2.48,1.32-2.49,1.32c0,0,0,0,0,0c-0.01-0.02-0.02-0.04-0.03-0.06c0.01-0.02,0.03-0.06,0.04-0.08
			c0.01-0.02,0.02-0.04,0.03-0.05c-0.14,0.15-0.29,0.29-0.43,0.43c0,0.01,0.01,0.02,0.01,0.03c0.03,0.01,0.03,0.01,0.03,0.01
			c0.17,0,1.33-0.57,2.84-1.45c0.19-0.11,0.38-0.22,0.58-0.34c0.12-0.07,0.23-0.14,0.35-0.21c0.99-0.61,2.07-1.33,3.09-2.1
			c0.09-0.07,0.17-0.13,0.26-0.2c0.08-0.06,0.16-0.12,0.24-0.18c0.08-0.07,0.27-0.23,0.52-0.51c0.02-0.03,2.29-2.7,1.68-7.89
			c-0.04-0.21-0.1-0.31-0.2-0.36c-0.04-0.02-0.1-0.04-0.16-0.05C71.44,33.43,71.41,33.44,71.37,33.45z"/>
		<path class="st1" d="M65.13,44.87c0.2-0.12,0.38-0.23,0.57-0.35c0.13-0.08,0.25-0.16,0.38-0.24c1.45-0.91,2.47-1.66,3.28-2.29
			c0.08-0.06,0.16-0.12,0.24-0.18c0.14-0.1,0.26-0.21,0.39-0.3c1.4-2.9,1.23-4.97,1.09-6.79c-0.67,0.66-1.33,1.26-1.97,1.83
			c-0.21,0.19-0.42,0.37-0.63,0.54c-0.09,0.07-0.17,0.15-0.26,0.22c-0.01,0.01-0.02,0.02-0.03,0.02c-0.81,2.1-2.15,5.06-4.52,7.85
			c-0.13,0.27-0.26,0.52-0.39,0.76C63.95,45.56,64.57,45.2,65.13,44.87z"/>
		<path class="st1" d="M65.13,45.75c-0.32,0.18-0.66,0.37-1.02,0.55c-0.67,0.35-1.39,0.72-2.17,1.09c-0.33,0.16-0.66,0.31-1.01,0.47
			c-0.06,0.05-0.12,0.1-0.18,0.15c0.17-0.08,0.34-0.16,0.51-0.23c0.75-0.35,1.46-0.69,2.13-1.03c0.42-0.22,0.83-0.43,1.23-0.64
			c1.17-0.63,2.21-1.26,3.15-1.9c0.25-0.17,0.49-0.34,0.73-0.52c1.78-1.3,3.12-2.65,4.15-4.12l0.23-0.36
			c-0.04,0.06-0.08,0.12-0.13,0.18c-0.87,1.2-1.98,2.53-4.03,4.06c-0.2,0.15-0.41,0.3-0.63,0.46C67.26,44.48,66.28,45.1,65.13,45.75
			z"/>
		<path class="st1" d="M69.74,30.04c0.11-0.14,0.25-0.31,0.33-0.59c0.41-1.33-2.26-4.81-4.2-7.11c-0.09-0.11-0.18-0.21-0.27-0.32
			c-0.38-0.45-0.72-0.84-1-1.14c-0.09,0.12-0.18,0.25-0.28,0.38c0.37,0.41,0.72,0.8,1.04,1.18c0.09,0.1,0.17,0.2,0.26,0.3
			c4.14,4.89,4.14,6.56,4.13,6.57c-0.05,0.16-0.13,0.27-0.2,0.35c-0.84,0.85-1.77,1.76-2.69,2.61c0.07,0.12,0.14,0.24,0.21,0.36
			c0.47-0.43,0.94-0.88,1.42-1.35c0.09-0.09,0.18-0.18,0.27-0.27C69.1,30.7,69.42,30.37,69.74,30.04z"/>
		<path class="st1" d="M63.84,21.91c-0.72,0.93-1.56,1.95-2.54,3.1c2.28,2.62,3.94,4.65,5.23,6.7c1.1-1.02,1.87-1.81,2.64-2.59
			c-1.23-2.29-2.63-4.13-3.97-5.69c-0.08-0.09-0.16-0.19-0.24-0.28C64.57,22.72,64.2,22.3,63.84,21.91z"/>
	</g>
	<path id="A" class="st0" d="M63.45,40.3c-0.2-0.44-0.43-0.94-0.63-1.33l-0.01-0.02c-1.12-1.87-2.28-3.81-6.66-8.38l-0.22-0.23
		l-0.23,0.22c-0.9,0.86-1.82,1.73-2.72,2.57c-0.69,0.65-1.4,1.31-2.09,1.98C41.57,26.31,32.61,17.15,33.4,9.94
		c0.32-2.89,2.14-5.29,5.59-7.36c0.02-0.01,0.04-0.02,0.06-0.03l-0.13-0.22l-0.19-0.35c0,0-0.01,0-0.01,0c0,0,0,0,0,0
		c-3.09,1.66-5.79,3.88-8.02,6.6c-2.17,2.65-3.77,5.64-4.78,8.89c-0.01,0.05-0.03,0.09-0.04,0.14c-0.05,0.16-0.1,0.32-0.14,0.48
		c0,0.01,0,0.01-0.01,0.02c-0.66,2.35-1,4.79-1,7.25c0,6.08,2,11.8,5.78,16.54c3.67,4.6,8.82,7.88,14.51,9.24l0.04,0.01h2.44
		l-2.32-0.64c-0.52-0.14-1.22-0.34-1.89-0.61c0,0,0,0,0,0c-0.09-0.04-0.19-0.08-0.28-0.12c0,0-0.01,0-0.01-0.01
		c-1.51-0.69-1.73-1.38-1.86-1.8l-0.02-0.11L41,47.8c-4.06-2.96-7.18-7.55-8.87-13.03c3.35,3.57,7.28,6.51,11.09,9.36
		c2.55,1.9,5.18,3.87,7.61,6l0.22,0.2l0,0l0.32-0.3c2.06-1.87,4.36-3.51,6.58-5.1c1.24-0.89,2.53-1.81,3.75-2.76l0.37-0.26
		c0.45-0.33,0.97-0.69,1.37-0.99l0.21-0.16L63.45,40.3z M32.76,9.87c-0.83,7.54,8.32,16.88,17.8,25.81c0,0.11,0,0.21,0,0.32
		c0,0.05,0,0.09,0,0.14c0,0.12,0,0.24,0,0.36c0,0.07,0,0.14,0,0.21c0,0.11,0,0.21,0,0.31c0,0.08,0,0.15,0,0.23c0,0.09,0,0.18,0,0.27
		c0,0.09,0,0.18,0,0.27c0,0.07,0,0.15,0,0.22c0,0.11,0,0.22,0,0.33c0,0.05,0,0.09,0,0.14c0,0.13,0,0.25,0,0.38c0,0.05,0,0.11,0,0.16
		c0,0.12,0,0.24,0,0.36c0,0.04,0,0.08,0,0.12c0,0.13,0,0.25,0,0.38c0,0.04,0,0.09,0,0.13c0,0.13,0,0.26,0,0.38c0,0.01,0,0.03,0,0.04
		c0,0.15,0,0.3,0,0.45c0,0.01,0,0.01,0,0.02c0,0.48,0.01,0.94,0.01,1.39v0c0.03,2.89,0.06,5.24,0.1,6.84
		c-2.44-2.16-5.07-4.14-7.62-6.06c-3.93-2.95-7.99-6.01-11.36-9.74c-1.28-2.71-2.14-5.22-2.67-7.54c-0.79-3.57-1.04-7.83,0.35-12.01
		c0.01-0.04,0.02-0.07,0.04-0.11c0.01-0.04,0.03-0.09,0.05-0.13c0.72-2.04,1.74-3.78,2.86-5.24c0.45-0.59,0.95-1.16,1.5-1.73
		C33.25,7.62,32.89,8.72,32.76,9.87z M40.52,48.26C40.52,48.26,40.52,48.26,40.52,48.26c0.02,0.08,0.04,0.15,0.07,0.22
		c0,0.01,0.01,0.03,0.01,0.04c0.03,0.07,0.05,0.13,0.09,0.19c0.01,0.01,0.01,0.03,0.02,0.04c0.03,0.06,0.07,0.12,0.11,0.18
		c0.01,0.01,0.01,0.02,0.02,0.03c0.04,0.06,0.08,0.12,0.12,0.17c0,0,0,0.01,0.01,0.01c-0.29-0.13-0.58-0.26-0.87-0.39
		c-8.31-3.92-13.96-12.04-14.66-21.42c-0.05-0.65-0.07-1.3-0.07-1.96c0-0.18,0-0.35,0.01-0.52c0-0.04,0-0.08,0-0.12
		c0.01-0.25,0.01-0.5,0.03-0.74c0-0.02,0-0.04,0-0.06c0.01-0.25,0.03-0.51,0.05-0.76c0-0.01,0-0.02,0-0.03
		c0.02-0.25,0.05-0.5,0.08-0.76c0-0.03,0.01-0.06,0.01-0.09c0.03-0.24,0.06-0.48,0.1-0.72c0.01-0.04,0.01-0.08,0.02-0.12
		c0.04-0.23,0.07-0.47,0.12-0.7c0.01-0.04,0.01-0.08,0.02-0.12c0.04-0.23,0.09-0.47,0.14-0.7c0.01-0.04,0.02-0.07,0.02-0.11
		c0.05-0.24,0.11-0.48,0.17-0.71c0.01-0.02,0.01-0.05,0.02-0.07c0.06-0.25,0.13-0.5,0.2-0.74c0.02-0.07,0.04-0.14,0.06-0.21
		c0.04-0.14,0.08-0.27,0.12-0.41c0.01-0.04,0.03-0.09,0.04-0.13c0.01-0.03,0.02-0.06,0.03-0.09c0.04-0.12,0.08-0.24,0.12-0.36
		c0.01-0.04,0.03-0.09,0.05-0.13c0.01-0.04,0.03-0.07,0.04-0.11c0.04-0.11,0.08-0.23,0.12-0.34c0.01-0.03,0.03-0.07,0.04-0.1
		c0.02-0.05,0.03-0.1,0.05-0.14c0.04-0.11,0.09-0.22,0.13-0.34c0.01-0.02,0.02-0.04,0.02-0.06c0.02-0.06,0.05-0.12,0.07-0.18
		c0.05-0.12,0.1-0.24,0.15-0.35c0.03-0.07,0.06-0.14,0.09-0.21c0.06-0.14,0.12-0.27,0.18-0.4c0.02-0.05,0.04-0.1,0.07-0.15
		c0.01-0.02,0.02-0.04,0.03-0.05c0.07-0.16,0.15-0.32,0.23-0.47c0.03-0.07,0.07-0.13,0.1-0.2c0.06-0.11,0.11-0.23,0.17-0.34
		c0.04-0.07,0.07-0.14,0.11-0.21c0-0.01,0.01-0.01,0.01-0.02c0.05-0.1,0.11-0.21,0.17-0.31c0.03-0.06,0.06-0.11,0.09-0.17
		c0.01-0.03,0.03-0.05,0.04-0.08c0.05-0.1,0.11-0.19,0.16-0.28c0.02-0.04,0.05-0.08,0.07-0.12c0.02-0.04,0.05-0.09,0.07-0.13
		c0.06-0.09,0.11-0.19,0.17-0.28c0.01-0.02,0.03-0.05,0.04-0.07c0.03-0.06,0.07-0.11,0.1-0.17c0.06-0.1,0.13-0.21,0.2-0.31
		c0.04-0.07,0.09-0.14,0.13-0.21c0.07-0.11,0.15-0.22,0.22-0.33c0.04-0.05,0.07-0.11,0.11-0.16c0.02-0.04,0.05-0.07,0.08-0.11
		c0.07-0.1,0.14-0.2,0.21-0.3c-0.67,1.18-1.18,2.38-1.56,3.58c-1.06,3.28-1.38,7.28-0.28,12.1c0.74,3.37,1.95,6.14,2.73,7.71
		C32.74,39.8,36.07,44.98,40.52,48.26z M61.7,41.38l-0.38,0.27c-1.22,0.94-2.5,1.86-3.74,2.75c-2.09,1.5-4.25,3.04-6.23,4.78
		c0-0.01,0-0.02,0-0.03c0-0.05,0-0.1,0-0.15c0-0.04,0-0.08,0-0.12c0-0.05,0-0.11,0-0.16c0-0.04,0-0.09,0-0.13c0-0.05,0-0.1,0-0.15
		c0-0.05,0-0.11,0-0.16c0-0.05,0-0.09,0-0.14c0-0.06,0-0.12,0-0.18c0-0.05,0-0.09,0-0.14c0-0.07,0-0.14,0-0.22c0-0.04,0-0.07,0-0.11
		c0-0.09,0-0.18,0-0.28c0-0.02,0-0.05,0-0.07c0-0.24-0.01-0.49-0.01-0.75c0-0.02,0-0.03,0-0.05c0-0.11,0-0.23,0-0.35
		c0-0.03,0-0.05,0-0.08c0-0.1,0-0.2,0-0.31c0-0.04,0-0.09,0-0.13c0-0.09,0-0.19,0-0.28c0-0.05,0-0.09,0-0.14c0-0.1,0-0.2,0-0.3
		c0-0.04,0-0.07,0-0.11c0-0.11,0-0.22,0-0.33c0-0.04,0-0.08,0-0.12c0-0.11,0-0.22,0-0.34c0-0.04,0-0.08,0-0.12c0-0.12,0-0.25,0-0.38
		c0-0.03,0-0.05,0-0.08c0-0.47-0.01-0.97-0.01-1.47c0-0.01,0-0.03,0-0.04c0-0.15,0-0.31,0-0.46c0-0.03,0-0.06,0-0.09
		c0-0.14,0-0.29,0-0.43c0-0.03,0-0.06,0-0.09c0-0.15,0-0.3,0-0.46c0-0.02,0-0.05,0-0.07c0-0.15,0-0.3,0-0.46c0-0.03,0-0.07,0-0.1
		c0-0.15,0-0.29,0-0.44c0-0.04,0-0.08,0-0.11c0-0.16,0-0.32,0-0.48c0-0.02,0-0.04,0-0.06c0-0.76-0.01-1.55-0.01-2.35
		c0-0.01,0-0.01,0-0.02c0-0.15,0-0.31,0-0.46c0.74-0.7,1.49-1.4,2.21-2.09c0.82-0.77,1.66-1.56,2.49-2.35
		c4.14,4.34,5.26,6.22,6.34,8.02c0.19,0.37,0.41,0.85,0.6,1.27C62.49,40.81,62.08,41.11,61.7,41.38z"/>
	<path id="B" class="st1" d="M77.23,25.38c0-7.59-3.22-14.83-8.82-19.86c-0.17-0.15-0.34-0.3-0.52-0.45
		c-2.57-2.19-5.48-3.83-8.66-4.88l-0.05-0.02h-5.13l0.05,0.37c0.16,1.21-0.61,2.4-3.14,4.8c-2.04-2.05-3.22-3.57-2.88-4.76
		l0.12-0.41H43.4l-0.06,0.03c-3.09,1.25-4.89,3.02-5.35,5.25c-0.3,1.45-0.03,3.02,0.64,4.66c0,0.01,0.01,0.02,0.01,0.02
		c0.02,0.04,0.03,0.08,0.05,0.12c0.02,0.06,0.05,0.11,0.07,0.17c0.02,0.04,0.04,0.08,0.05,0.12c0.02,0.06,0.05,0.11,0.07,0.17
		c0.02,0.04,0.04,0.09,0.06,0.13c0.03,0.06,0.05,0.11,0.08,0.17c0.02,0.04,0.04,0.09,0.06,0.13c0.03,0.06,0.05,0.11,0.08,0.17
		c0.02,0.05,0.05,0.09,0.07,0.14c0.03,0.06,0.06,0.11,0.09,0.17c0.02,0.05,0.05,0.09,0.07,0.14c0.03,0.06,0.06,0.11,0.09,0.17
		c0.03,0.05,0.05,0.09,0.08,0.14c0.03,0.06,0.07,0.12,0.1,0.17c0.03,0.05,0.05,0.09,0.08,0.14c0.03,0.06,0.07,0.12,0.1,0.18
		c0.03,0.05,0.06,0.09,0.09,0.14c0.04,0.06,0.07,0.12,0.11,0.18c0.03,0.05,0.06,0.09,0.09,0.14c0.04,0.06,0.08,0.12,0.12,0.18
		c0.03,0.05,0.06,0.09,0.09,0.14c0.04,0.06,0.08,0.13,0.13,0.19c0.03,0.05,0.06,0.09,0.09,0.14c0.04,0.07,0.09,0.13,0.13,0.2
		c0.03,0.05,0.06,0.09,0.09,0.14c0.05,0.07,0.1,0.14,0.15,0.21c0.03,0.04,0.06,0.08,0.09,0.13c0.06,0.08,0.11,0.16,0.17,0.24
		c0.03,0.03,0.05,0.07,0.08,0.1c0.08,0.11,0.17,0.23,0.25,0.35c2.47,3.29,5.84,6.7,9.1,9.99l0.2,0.19l0.35-0.28
		C58.52,17.6,63.91,12.19,64.14,6.7c1.61,2.12,2.92,4.58,3.9,7.33c-1.16,3.07-2.59,5.62-7,10.78l-0.18,0.21l0.18,0.21c0,0,0,0,0,0
		c3.71,4.33,5.74,7.08,7.21,10.89c-1.01,3.05-2.47,5.81-4.25,8.11c-1.37,1.74-2.65,2.84-3.49,3.57l-0.11,0.09l-0.01,0.14
		c-0.03,0.57-0.1,1.62-3.36,2.51l0.16,0.63c5.12-1.24,9.71-3.99,13.27-7.97c3.58-4.01,5.84-8.95,6.54-14.29l0-0.04l0,0
		C77.16,27.71,77.23,26.54,77.23,25.38z M50.63,5.92c0,0.02,0,0.05,0,0.08c0,0.11,0,0.22,0,0.33c0,0.04,0,0.08,0,0.12
		c0,0.11,0,0.21,0,0.32c0,0.05,0,0.1,0,0.16c0,0.1,0,0.2,0,0.31c0,0.04,0,0.09,0,0.13c0,0.11,0,0.23,0,0.34c0,0.04,0,0.09,0,0.13
		c0,0.11,0,0.23,0,0.34c0,0.07,0,0.13,0,0.2c0,0.09,0,0.18,0,0.27c0,0.09,0,0.18,0,0.26c0,0.08,0,0.16,0,0.24c0,0.08,0,0.17,0,0.25
		c0,0.09,0,0.18,0,0.27c0,0.08,0,0.15,0,0.23c0,0.1,0,0.19,0,0.29c0,0.08,0,0.16,0,0.24c0,0.09,0,0.19,0,0.29c0,0.08,0,0.16,0,0.24
		c0,0.1,0,0.2,0,0.3c0,0.07,0,0.14,0,0.21c0,0.11,0,0.22,0,0.33c0,0.07,0,0.14,0,0.21c0,0.12,0,0.25,0,0.37c0,0.03,0,0.07,0,0.1
		c0,0.15,0,0.29,0,0.44c0,0.05,0,0.11,0,0.16c0,0.14,0,0.28,0,0.43c0,0.02,0,0.05,0,0.07c0,0.17,0,0.34,0,0.5c0,0.01,0,0.02,0,0.04
		c-0.01,2.85-0.02,5.95-0.03,9.13c0,0.19,0,0.39,0,0.58c0,0.05,0,0.09,0,0.14c-4.78-4.84-10.28-10.52-11.68-15.22
		c-0.01-0.02-0.01-0.04-0.02-0.06c-0.03-0.1-0.05-0.19-0.07-0.29c-0.01-0.03-0.01-0.06-0.02-0.09c-0.03-0.11-0.05-0.22-0.07-0.34
		c0-0.02-0.01-0.04-0.01-0.06c-0.02-0.09-0.03-0.19-0.04-0.28c0-0.03-0.01-0.06-0.01-0.09c-0.01-0.11-0.02-0.22-0.03-0.33
		c0-0.02,0-0.03,0-0.05c-0.01-0.1-0.01-0.19-0.01-0.28c0-0.03,0-0.06,0-0.09c0-0.11,0-0.21,0.01-0.32c0-0.01,0-0.02,0-0.03
		c0.01-0.1,0.01-0.2,0.03-0.29c0-0.03,0.01-0.05,0.01-0.08c0.01-0.11,0.03-0.21,0.05-0.31c0.01-0.06,0.03-0.13,0.04-0.19
		c0-0.02,0.01-0.04,0.01-0.06c0.01-0.04,0.02-0.09,0.03-0.13c0.01-0.02,0.01-0.04,0.02-0.06c0.01-0.04,0.02-0.08,0.04-0.12
		c0.01-0.02,0.02-0.05,0.02-0.07c0.01-0.04,0.02-0.07,0.04-0.11c0.01-0.03,0.02-0.05,0.03-0.08c0.01-0.04,0.03-0.07,0.04-0.11
		c0.01-0.03,0.02-0.05,0.03-0.08c0.01-0.03,0.03-0.07,0.04-0.1c0.01-0.03,0.02-0.05,0.04-0.08c0.02-0.03,0.03-0.07,0.05-0.1
		c0.01-0.03,0.03-0.05,0.04-0.08c0.02-0.03,0.03-0.07,0.05-0.1c0.01-0.03,0.03-0.05,0.04-0.08c0.02-0.03,0.04-0.06,0.06-0.1
		c0.01-0.02,0.03-0.05,0.05-0.07c0.02-0.03,0.04-0.06,0.06-0.1c0.02-0.02,0.03-0.05,0.05-0.07c0.02-0.03,0.04-0.06,0.06-0.09
		c0.02-0.02,0.04-0.05,0.05-0.07c0.02-0.03,0.04-0.06,0.07-0.09c0.02-0.02,0.04-0.05,0.06-0.07c0.02-0.03,0.05-0.06,0.07-0.09
		c0.02-0.02,0.04-0.05,0.06-0.07c0.02-0.03,0.05-0.06,0.07-0.09c0.02-0.02,0.04-0.05,0.06-0.07c0.03-0.03,0.05-0.06,0.08-0.09
		c0.02-0.02,0.05-0.05,0.07-0.07c0.03-0.03,0.05-0.06,0.08-0.08c0.02-0.02,0.05-0.05,0.07-0.07c0.03-0.03,0.06-0.05,0.08-0.08
		c0.02-0.02,0.05-0.05,0.08-0.07c0.03-0.03,0.06-0.05,0.09-0.08c0.03-0.02,0.05-0.05,0.08-0.07c0.03-0.03,0.06-0.05,0.09-0.08
		c0.03-0.02,0.06-0.05,0.08-0.07c0.03-0.03,0.06-0.05,0.1-0.08c0.03-0.02,0.06-0.05,0.09-0.07c0.03-0.03,0.07-0.05,0.1-0.08
		c0.03-0.02,0.06-0.04,0.09-0.07c0.03-0.03,0.07-0.05,0.1-0.08c0.03-0.02,0.06-0.04,0.09-0.07c0.04-0.02,0.07-0.05,0.11-0.07
		c0.03-0.02,0.07-0.04,0.1-0.07c0.04-0.02,0.07-0.05,0.11-0.07c0.03-0.02,0.07-0.04,0.1-0.06c0.04-0.02,0.08-0.05,0.11-0.07
		c0.03-0.02,0.07-0.04,0.1-0.06c0.04-0.02,0.08-0.05,0.12-0.07c0.04-0.02,0.07-0.04,0.11-0.06c0.04-0.02,0.08-0.05,0.12-0.07
		c0.04-0.02,0.07-0.04,0.11-0.06c0.04-0.02,0.09-0.05,0.13-0.07c0.04-0.02,0.07-0.04,0.11-0.06c0.05-0.02,0.09-0.05,0.14-0.07
		c0.04-0.02,0.07-0.04,0.11-0.06c0.05-0.02,0.09-0.05,0.14-0.07c0.04-0.02,0.08-0.04,0.11-0.05c0.05-0.02,0.1-0.05,0.15-0.07
		c0.04-0.02,0.08-0.04,0.12-0.05c0.04-0.02,0.08-0.04,0.12-0.05h3.85C47.26,2.22,48.5,3.79,50.63,5.92z M64.06,5.55l-0.64-0.78
		l0.07,1.01c0.38,5.43-4.9,10.84-12.3,18.22c0-0.15,0-0.3,0-0.45c0-0.05,0-0.1,0-0.15c0-1.56,0-3.1,0.01-4.6c0-0.03,0-0.06,0-0.1
		c0-0.19,0-0.38,0-0.57c0,0,0,0,0,0c0-0.21,0-0.41,0-0.62c0-0.02,0-0.04,0-0.07c0-0.19,0-0.37,0-0.56c0-0.03,0-0.05,0-0.08
		c0-0.18,0-0.36,0-0.54c0-0.03,0-0.06,0-0.08c0-0.18,0-0.36,0-0.54c0-0.03,0-0.06,0-0.08c0-0.17,0-0.34,0-0.51c0-0.04,0-0.08,0-0.11
		c0-0.17,0-0.34,0-0.51c0-0.03,0-0.06,0-0.09c0-0.17,0-0.34,0-0.51c0-0.03,0-0.06,0-0.09c0-0.17,0-0.34,0-0.51c0-0.03,0-0.05,0-0.08
		c0-0.18,0-0.35,0-0.53c0-0.02,0-0.03,0-0.05c0-0.17,0-0.33,0-0.5c0-0.03,0-0.06,0-0.09c0-0.17,0-0.34,0-0.51c0-0.01,0-0.03,0-0.04
		c0.01-2.02,0.03-3.87,0.05-5.5c2.59-2.44,3.51-3.77,3.49-5.11h4.31c3.07,1.02,5.9,2.62,8.39,4.74c0.17,0.14,0.34,0.29,0.5,0.44
		c5.47,4.91,8.61,11.97,8.61,19.38c0,0.21,0,0.43-0.01,0.64c-0.16-0.65-0.35-1.27-0.58-1.88c-1.01-2.78-3.03-6.09-7.32-10.29
		C67.55,10.68,66,7.89,64.06,5.55z M60.61,49.37c0.34-0.44,0.41-0.85,0.43-1.17c0.02-0.02,0.04-0.03,0.06-0.05
		c0.57-0.46,1.13-0.97,1.66-1.51c1.11-1.12,2.03-2.29,2.8-3.44c1.22-1.8,2.43-4.12,3.43-7.11l0.04-0.11l0,0l0,0l-0.05-0.11
		c0,0,0,0,0,0c-1.24-3.15-2.84-5.57-5.42-8.69c-0.55-0.67-1.16-1.38-1.84-2.16c4.16-4.89,5.65-7.45,6.79-10.4
		c2.75,2.79,5.35,5.84,6.76,9.46c0.02,0.05,0.04,0.1,0.06,0.15c0.01,0.04,0.03,0.07,0.04,0.11c0.61,1.68,0.84,3.15,0.98,4.51
		C75.14,38.1,68.99,45.95,60.61,49.37z"/>
	<g>
		<path id="M_6_" class="st2" d="M107.03,16.71l-0.43,0.8c-0.02,0.03-0.04,0.06-0.05,0.09l-6.23,8.8l-3.24-8.48l-0.27-1.23h-3.4
			l-0.11,0.48l-0.38,1.5l0,0l-4.06,15.96h0.44c0,0,0,0,0,0h2.3c0,0,0,0,0,0h0.41l3.15-12.16L99.5,33l7.33-10.08l-0.67,11.71h0.4h2.3
			h0.39l0.02-0.3c0.01-0.02,0.01-0.05,0.01-0.08l1.01-15.4l0.15-2.15L107.03,16.71z"/>
		<path id="A_6_" class="st2" d="M126.26,29.45l-1.14-10.12c-0.01-0.09-0.02-0.17-0.04-0.25l-0.31-2.49h-5.59l-1,2.1
			c-0.04,0.09-0.09,0.18-0.13,0.28l-0.01,0.03l0,0c-0.05,0.11-0.1,0.22-0.15,0.33l-3.71,8.47l-0.03,0.06l-2.8,6.38c0,0,0,0,0,0.01
			l-0.16,0.37h0.37h2.41h0.26l2.32-5.41h6.67l0.03,0.29l0.57,5.12h0.24h2.41h0.39L126.26,29.45z M117.64,26.68l2.83-6.58
			c0.13-0.31,0.25-0.63,0.36-0.91h1.31c0.02,0.28,0.03,0.6,0.07,0.91l0.75,6.58H117.64z"/>
		<polygon id="X_12_" class="st2" points="143.03,30.98 140.38,25.75 144.01,21.4 147.87,16.71 146.65,16.71 145.48,16.71 
			144.09,16.71 143.7,16.71 138.79,22.6 135.81,16.71 135.33,16.71 134.09,16.71 132.78,16.71 132.18,16.71 134.51,21.23 
			134.52,21.24 136.57,25.25 128.76,34.62 129.48,34.62 132.01,34.62 132.98,34.62 138.18,28.39 141.38,34.62 141.75,34.62 
			144.28,34.62 144.91,34.62 143.03,30.98 		"/>
		<polygon id="L_6_" class="st2" points="158.33,32 157.05,32 150.22,32 152.25,19.17 152.67,16.71 152.29,16.71 149.97,16.71 
			149.62,16.71 149.46,17.73 147,33.31 146.78,34.62 147.13,34.62 148.41,34.62 156.03,34.62 157.91,34.62 158.26,34.62 158.69,32 
					"/>
		<polygon id="E_12_" class="st2" points="172.67,19.33 174.56,19.34 174.98,16.71 174.61,16.71 172.88,16.71 165.94,16.71 
			163.28,16.71 162.92,16.71 160.09,34.62 160.44,34.62 162.67,34.62 170.72,34.62 171.78,34.62 172.15,34.62 172.6,32 172.2,32 
			171.26,32 163.53,32 164.28,27.13 170.63,27.13 172.2,27.13 172.56,27.13 172.99,24.58 172.62,24.58 170.91,24.58 164.68,24.58 
			165.52,19.33 		"/>
		<polygon id="X_11_" class="st2" points="188.36,30.98 185.71,25.75 189.35,21.4 193.2,16.71 191.98,16.71 190.81,16.71 
			189.42,16.71 189.03,16.71 184.12,22.6 181.14,16.71 180.66,16.71 179.42,16.71 178.11,16.71 177.51,16.71 179.84,21.23 
			179.85,21.24 181.9,25.25 174.09,34.62 174.81,34.62 177.34,34.62 178.32,34.62 183.51,28.39 186.71,34.62 187.08,34.62 
			189.61,34.62 190.24,34.62 188.36,30.98 		"/>
		<path id="G_6_" class="st2" d="M209.56,16.66c-0.19-0.01-0.38-0.02-0.59-0.03l-0.36-0.02l0,0c-0.55-0.02-1.15-0.03-1.8-0.03
			c-3,0-4.78,0.47-6.16,1.94c-1.38,1.43-2.04,3.51-2.6,7.14c-1.12,7,0.07,9.06,5.88,9.06c3.58,0,5.64-0.42,6.18-1.24
			c0.07-0.07,0.12-0.26,0.19-0.52l0.69-4.34l0.48-2.9h-1.82h-1.03h-2.31l-0.34,2.29h2.31l-0.66,4.08h-3.26
			c-1.78,0-2.88-0.44-3.3-1.33c-0.42-0.91-0.42-2.6,0.02-5.11c0.4-2.58,0.94-4.29,1.62-5.15c0.68-0.87,1.92-1.31,3.7-1.31h2.24
			l2.96,0.05l0.18-1.24l0.1-0.66c0.01-0.04,0.01-0.08,0.01-0.12l0.07-0.46L209.56,16.66z"/>
		<polygon id="E_11_" class="st2" points="224.47,19.33 226.36,19.34 226.77,16.71 226.4,16.71 224.68,16.71 217.74,16.71 
			215.07,16.71 214.71,16.71 211.88,34.62 212.24,34.62 214.47,34.62 222.51,34.62 223.57,34.62 223.94,34.62 224.39,32 223.99,32 
			223.06,32 215.33,32 216.08,27.13 222.43,27.13 223.99,27.13 224.35,27.13 224.79,24.58 224.41,24.58 222.7,24.58 216.47,24.58 
			217.32,19.33 		"/>
		<path id="O_6_" class="st2" d="M240.55,18.49c0.82,1.26,0.94,3.68,0.37,7.21c-0.56,3.58-1.24,5.69-2.62,7.12
			c-1.38,1.43-3.19,1.92-6.18,1.92c-5.83,0-7-2.06-5.9-9.04c0.56-3.63,1.24-5.74,2.62-7.17c1.38-1.48,3.19-1.94,6.16-1.94
			C237.91,16.59,239.76,17.22,240.55,18.49z M232.54,32.12c1.78,0,3.02-0.42,3.7-1.29c0.7-0.87,1.24-2.58,1.64-5.13
			c0.44-2.51,0.47-4.19,0.02-5.11c-0.42-0.91-1.52-1.38-3.3-1.38c-1.78,0-3.02,0.45-3.72,1.33c-0.68,0.87-1.24,2.6-1.64,5.15
			C228.47,30.64,228.87,32.12,232.54,32.12z"/>
	</g>
</g>
<g id="NEGATIVO" class="st3">
	<g class="st4">
		<path class="st2" d="M98.69,39.92c-11.01,0-19.96-8.96-19.96-19.96S87.69,0,98.69,0s19.96,8.95,19.96,19.96
			S109.7,39.92,98.69,39.92z M98.69,0.75c-10.59,0-19.21,8.62-19.21,19.21s8.62,19.21,19.21,19.21s19.21-8.62,19.21-19.21
			S109.28,0.75,98.69,0.75z"/>
		<path class="st2" d="M107.14,32.54L94.18,11.07l4.53-7.46l15.35,25.34c1.54-2.64,2.43-5.71,2.43-8.98c0-9.83-7.97-17.8-17.8-17.8
			s-17.8,7.97-17.8,17.8c0,3.27,0.89,6.34,2.43,8.98l9.4-15.44l4.53,7.51l-8.39,13.8c2.82,1.87,6.2,2.96,9.83,2.96
			c3.63,0,7-1.09,9.82-2.95L107.14,32.54z"/>
	</g>
	<g class="st4">
		<path class="st2" d="M140,39.92c-11.01,0-19.96-8.96-19.96-19.96S128.99,0,140,0s19.96,8.95,19.96,19.96S151.01,39.92,140,39.92z
			 M140,0.75c-10.59,0-19.21,8.62-19.21,19.21s8.62,19.21,19.21,19.21s19.21-8.62,19.21-19.21S150.59,0.75,140,0.75z"/>
		<path class="st2" d="M140,2.16c-3.51,0-6.78,1.02-9.53,2.77h10.91c4.88,0,9.45,2.39,12.23,6.4l0.13,0.13
			c1.7,2.48,2.61,5.4,2.61,8.45c0,3-0.91,5.92-2.61,8.4c-0.04,0.04-0.09,0.09-0.13,0.13c-2.19,3.15-5.49,5.3-9.18,6.08l-4.31-7.12
			h1.26c0.17,0,0.35,0,0.52,0c2.26-0.13,4.31-1.31,5.62-3.18c0-0.04,0-0.04,0-0.04c0.83-1.26,1.26-2.74,1.26-4.27
			c0-1.52-0.44-3-1.31-4.27c-1.39-2-3.66-3.22-6.1-3.22h-7.45v4.75l-6.17-10.14c-3.43,3.25-5.57,7.84-5.57,12.93
			c0,4.43,1.62,8.47,4.29,11.59V9.3l7.45,12.3v5.79h3.51l4.5,7.43c-0.19,0.01-0.37,0.02-0.56,0.02h-11.16
			c2.81,1.85,6.17,2.93,9.78,2.93c9.83,0,17.8-7.97,17.8-17.8C157.8,10.13,149.83,2.16,140,2.16z"/>
	</g>
	<g class="st4">
		<path class="st2" d="M181.31,39.92c-11.01,0-19.96-8.96-19.96-19.96S170.3,0,181.31,0s19.96,8.95,19.96,19.96
			S192.31,39.92,181.31,39.92z M181.31,0.75c-10.59,0-19.21,8.62-19.21,19.21s8.62,19.21,19.21,19.21
			c10.59,0,19.21-8.62,19.21-19.21S191.9,0.75,181.31,0.75z"/>
		<g>
			<path class="st2" d="M199.11,19.96c0-3.08-0.78-5.98-2.16-8.5v4.32l-7.75,12.81v-4.97l-7.89,7.94l-7.79-7.84v5.11l-7.85-12.96v0
				l-0.01-0.01v-4.4c-1.38,2.53-2.16,5.42-2.16,8.5c0,3.11,0.8,6.04,2.2,8.58v-7.97l7.75,12.81v2.56c2.37,1.16,5.03,1.82,7.85,1.82
				c2.83,0,5.51-0.67,7.89-1.84v-2.69l7.75-12.81v8.05C198.33,25.94,199.11,23.04,199.11,19.96z"/>
			<path class="st2" d="M181.35,20.56L194.21,7.7c-3.24-3.41-7.82-5.54-12.9-5.54c-5.06,0-9.62,2.11-12.86,5.5L181.35,20.56z"/>
		</g>
	</g>
	<g class="st4">
		<path class="st2" d="M135.09,48.01H133c-0.08,0-0.12-0.04-0.12-0.11v-0.22c0-0.07,0.04-0.11,0.12-0.11h2.09
			c0.08,0,0.12,0.04,0.12,0.11v0.22C135.21,47.97,135.17,48.01,135.09,48.01z"/>
		<path class="st2" d="M139.11,49.57v-0.36c0-0.07,0.04-0.11,0.11-0.11h0.29c0.07,0,0.11,0.04,0.11,0.11v0.33c0,0.67,0.32,1,0.97,1
			h1.05c0.65,0,0.97-0.34,0.97-1.02v-0.42c0-0.29-0.12-0.53-0.36-0.69c-0.24-0.17-0.53-0.29-0.87-0.36
			c-0.34-0.07-0.69-0.15-1.03-0.23c-0.35-0.08-0.64-0.23-0.88-0.44c-0.24-0.21-0.36-0.5-0.36-0.86v-0.55c0-0.44,0.13-0.79,0.38-1.05
			c0.25-0.25,0.6-0.38,1.04-0.38h1.17c0.44,0,0.78,0.13,1.04,0.38c0.25,0.25,0.38,0.6,0.38,1.05v0.28c0,0.07-0.04,0.11-0.11,0.11
			h-0.29c-0.07,0-0.11-0.04-0.11-0.11V46c0-0.67-0.33-1-0.97-1h-1.04c-0.64,0-0.96,0.34-0.96,1.03v0.5c0,0.46,0.41,0.77,1.24,0.93
			c0.34,0.07,0.69,0.14,1.03,0.23c0.35,0.09,0.64,0.24,0.88,0.47c0.24,0.23,0.36,0.54,0.36,0.92v0.49c0,0.44-0.13,0.79-0.38,1.05
			c-0.25,0.25-0.6,0.38-1.04,0.38h-1.19c-0.44,0-0.78-0.13-1.04-0.38C139.23,50.36,139.11,50.02,139.11,49.57z"/>
		<path class="st2" d="M146.56,51h-0.29c-0.07,0-0.11-0.04-0.11-0.12v-2.32l-1.95-3.9c-0.04-0.08-0.02-0.12,0.07-0.12h0.36
			c0.06,0,0.11,0.04,0.14,0.12l1.61,3.29h0.05l1.6-3.29c0.03-0.08,0.08-0.12,0.14-0.12h0.37c0.07,0,0.1,0.04,0.07,0.12l-1.96,3.9
			v2.32C146.66,50.96,146.63,51,146.56,51z"/>
		<path class="st2" d="M149.71,49.57v-0.36c0-0.07,0.04-0.11,0.11-0.11h0.29c0.07,0,0.11,0.04,0.11,0.11v0.33c0,0.67,0.32,1,0.97,1
			h1.05c0.65,0,0.97-0.34,0.97-1.02v-0.42c0-0.29-0.12-0.53-0.36-0.69c-0.24-0.17-0.53-0.29-0.87-0.36
			c-0.34-0.07-0.69-0.15-1.03-0.23c-0.34-0.08-0.64-0.23-0.88-0.44c-0.24-0.21-0.36-0.5-0.36-0.86v-0.55c0-0.44,0.13-0.79,0.38-1.05
			c0.25-0.25,0.6-0.38,1.04-0.38h1.17c0.44,0,0.78,0.13,1.04,0.38c0.25,0.25,0.38,0.6,0.38,1.05v0.28c0,0.07-0.04,0.11-0.11,0.11
			h-0.29c-0.07,0-0.11-0.04-0.11-0.11V46c0-0.67-0.33-1-0.97-1h-1.04c-0.64,0-0.96,0.34-0.96,1.03v0.5c0,0.46,0.41,0.77,1.24,0.93
			c0.34,0.07,0.68,0.14,1.03,0.23c0.34,0.09,0.64,0.24,0.88,0.47c0.24,0.23,0.36,0.54,0.36,0.92v0.49c0,0.44-0.13,0.79-0.38,1.05
			c-0.25,0.25-0.6,0.38-1.04,0.38h-1.19c-0.44,0-0.78-0.13-1.04-0.38S149.71,50.02,149.71,49.57z"/>
		<path class="st2" d="M156.8,51h-0.29c-0.07,0-0.11-0.04-0.11-0.12v-5.8c0-0.06-0.03-0.09-0.1-0.09h-1.46
			c-0.08,0-0.12-0.04-0.12-0.11v-0.23c0-0.07,0.04-0.11,0.12-0.11h3.62c0.08,0,0.12,0.04,0.12,0.11v0.23c0,0.07-0.04,0.11-0.12,0.11
			H157c-0.07,0-0.1,0.03-0.1,0.09v5.8C156.9,50.96,156.87,51,156.8,51z"/>
		<path class="st2" d="M162.82,51h-3.11c-0.07,0-0.1-0.04-0.1-0.12v-6.22c0-0.08,0.03-0.12,0.1-0.12h3.11
			c0.08,0,0.12,0.04,0.12,0.11v0.23c0,0.07-0.04,0.11-0.12,0.11h-2.6c-0.07,0-0.1,0.03-0.1,0.09v2.31c0,0.06,0.03,0.09,0.1,0.09
			h2.32c0.07,0,0.11,0.04,0.11,0.11v0.23c0,0.07-0.04,0.11-0.11,0.11h-2.32c-0.07,0-0.1,0.03-0.1,0.09v2.43
			c0,0.06,0.03,0.09,0.1,0.09h2.6c0.08,0,0.12,0.04,0.12,0.11v0.23C162.94,50.96,162.9,51,162.82,51z"/>
		<path class="st2" d="M169.09,44.54h0.54c0.07,0,0.1,0.04,0.1,0.12v6.22c0,0.08-0.03,0.12-0.1,0.12h-0.29
			c-0.07,0-0.11-0.04-0.11-0.12v-5.57h-0.04l-1.78,4.17c-0.04,0.07-0.09,0.11-0.15,0.11h-0.33c-0.07,0-0.11-0.04-0.14-0.11
			l-1.81-4.18h-0.04v5.58c0,0.08-0.03,0.12-0.1,0.12h-0.29c-0.07,0-0.1-0.04-0.1-0.12v-6.22c0-0.08,0.03-0.12,0.1-0.12h0.54
			c0.05,0,0.08,0.02,0.09,0.06l1.89,4.41h0.04L169,44.6C169.02,44.56,169.05,44.54,169.09,44.54z"/>
		<path class="st2" d="M174.09,49.57v-0.36c0-0.07,0.04-0.11,0.11-0.11h0.29c0.07,0,0.11,0.04,0.11,0.11v0.33c0,0.67,0.32,1,0.97,1
			h1.05c0.65,0,0.97-0.34,0.97-1.02v-0.42c0-0.29-0.12-0.53-0.36-0.69c-0.24-0.17-0.53-0.29-0.87-0.36
			c-0.34-0.07-0.69-0.15-1.03-0.23c-0.34-0.08-0.64-0.23-0.88-0.44c-0.24-0.21-0.36-0.5-0.36-0.86v-0.55c0-0.44,0.13-0.79,0.38-1.05
			c0.25-0.25,0.6-0.38,1.04-0.38h1.17c0.44,0,0.78,0.13,1.04,0.38c0.25,0.25,0.38,0.6,0.38,1.05v0.28c0,0.07-0.04,0.11-0.11,0.11
			h-0.29c-0.07,0-0.11-0.04-0.11-0.11V46c0-0.67-0.33-1-0.97-1h-1.04c-0.64,0-0.96,0.34-0.96,1.03v0.5c0,0.46,0.41,0.77,1.24,0.93
			c0.34,0.07,0.68,0.14,1.03,0.23c0.34,0.09,0.64,0.24,0.88,0.47c0.24,0.23,0.36,0.54,0.36,0.92v0.49c0,0.44-0.13,0.79-0.38,1.05
			s-0.6,0.38-1.04,0.38h-1.19c-0.44,0-0.78-0.13-1.04-0.38C174.22,50.36,174.09,50.02,174.09,49.57z"/>
		<path class="st2" d="M183.27,44.54h0.28c0.07,0,0.11,0.04,0.11,0.11v4.92c0,0.44-0.13,0.79-0.38,1.05S182.69,51,182.26,51h-1.13
			c-0.44,0-0.78-0.13-1.03-0.38c-0.25-0.25-0.38-0.6-0.38-1.05v-4.91c0-0.08,0.03-0.12,0.1-0.12h0.29c0.07,0,0.11,0.04,0.11,0.12
			v4.89c0,0.32,0.08,0.56,0.24,0.73c0.16,0.17,0.4,0.26,0.7,0.26h1.04c0.31,0,0.54-0.09,0.71-0.26c0.16-0.17,0.25-0.42,0.25-0.74
			v-4.89C183.16,44.58,183.2,44.54,183.27,44.54z"/>
		<path class="st2" d="M185.88,44.66v6.22c0,0.08-0.04,0.12-0.11,0.12h-0.29c-0.07,0-0.1-0.04-0.1-0.12v-6.22
			c0-0.08,0.03-0.12,0.1-0.12h0.29C185.84,44.54,185.88,44.58,185.88,44.66z"/>
		<path class="st2" d="M189.04,51h-0.29c-0.07,0-0.11-0.04-0.11-0.12v-5.8c0-0.06-0.03-0.09-0.1-0.09h-1.46
			c-0.08,0-0.12-0.04-0.12-0.11v-0.23c0-0.07,0.04-0.11,0.12-0.11h3.62c0.08,0,0.12,0.04,0.12,0.11v0.23c0,0.07-0.04,0.11-0.12,0.11
			h-1.46c-0.07,0-0.1,0.03-0.1,0.09v5.8C189.14,50.96,189.11,51,189.04,51z"/>
		<path class="st2" d="M195.06,51h-3.11c-0.07,0-0.1-0.04-0.1-0.12v-6.22c0-0.08,0.03-0.12,0.1-0.12h3.11
			c0.08,0,0.12,0.04,0.12,0.11v0.23c0,0.07-0.04,0.11-0.12,0.11h-2.6c-0.07,0-0.1,0.03-0.1,0.09v2.31c0,0.06,0.03,0.09,0.1,0.09
			h2.32c0.07,0,0.11,0.04,0.11,0.11v0.23c0,0.07-0.04,0.11-0.11,0.11h-2.32c-0.07,0-0.1,0.03-0.1,0.09v2.43
			c0,0.06,0.03,0.09,0.1,0.09h2.6c0.08,0,0.12,0.04,0.12,0.11v0.23C195.18,50.96,195.14,51,195.06,51z"/>
		<path class="st2" d="M201.13,48.01h-2.09c-0.08,0-0.12-0.04-0.12-0.11v-0.22c0-0.07,0.04-0.11,0.12-0.11h2.09
			c0.08,0,0.12,0.04,0.12,0.11v0.22C201.25,47.97,201.21,48.01,201.13,48.01z"/>
	</g>
</g>
</svg>
